<svg xmlns="http://www.w3.org/2000/svg" xmlns:xlink="http://www.w3.org/1999/xlink" version="1.1" x="0px" y="0px" viewBox="0 0 12 12" enable-background="new 0 0 12 12" xml:space="preserve"><g><path fill="#000000" d="M6.893269,6.002037l4.902004-4.904579c0.257999-0.24943,0.257999-0.659142,0-0.90943   c-0.245149-0.251143-0.649701-0.251143-0.903424,0L5.989845,5.090891L1.087842,0.188027   c-0.249424-0.251143-0.657425-0.251143-0.911999,0c-0.249428,0.250288-0.249428,0.66,0,0.90943l4.901999,4.904579   l-4.901999,4.899432c-0.249428,0.252001-0.249428,0.660858,0,0.911146c0.1217,0.125999,0.287998,0.187716,0.454273,0.187716   c0.167149,0,0.329151-0.061716,0.4543-0.187716l4.905429-4.902005l4.902003,4.902005   c0.125149,0.125999,0.291424,0.187716,0.44915,0.187716c0.171425,0,0.333424-0.061716,0.454274-0.187716   c0.257999-0.250288,0.257999-0.659145,0-0.911146L6.893269,6.002037z"></path></g></svg>