<svg xmlns="http://www.w3.org/2000/svg" xmlns:xlink="http://www.w3.org/1999/xlink" version="1.1" x="0px" y="0px" viewBox="0 0 100 100" style="enable-background:new 0 0 100 100;" xml:space="preserve"><g><path d="M50,33.2c-9.1,0-16.5,7.6-16.5,16.8c0,9.3,7.4,16.8,16.5,16.8S66.5,59.3,66.5,50C66.5,40.7,59.1,33.2,50,33.2z M50,62.3   c-6.6,0-12-5.5-12-12.3s5.4-12.3,12-12.3S62,43.2,62,50S56.6,62.3,50,62.3z"></path><path d="M50,18.6C25.4,18.6,5,41.4,5,50s20.4,31.4,45,31.4S95,58.6,95,50S74.6,18.6,50,18.6z M50,76.9C27.7,76.9,9.5,55.3,9.5,50   c0-5.3,18.2-26.9,40.5-26.9S90.5,44.7,90.5,50C90.5,55.3,72.3,76.9,50,76.9z"></path></g></svg>