<svg xmlns="http://www.w3.org/2000/svg" xmlns:xlink="http://www.w3.org/1999/xlink" xmlns:sketch="http://www.bohemiancoding.com/sketch/ns" viewBox="0 0 100 100" version="1.1" x="0px" y="0px"><title>heart</title><desc>Created with Sketch Beta.</desc><g stroke="none" stroke-width="1" fill="none" fill-rule="evenodd" sketch:type="MSPage"><g sketch:type="MSArtboardGroup" fill="#000000"><path d="M50.0010381,24.6537505 L43.9470381,18.5547505 C35.2730381,9.81575054 21.1966381,9.81675054 12.5146381,18.5627505 C3.83073805,27.3107505 3.82893805,41.4857505 12.5063381,50.2277505 L34.2810381,72.1632505 L50.0010381,87.9997505 L87.4960381,50.2277505 C96.1700381,41.4887505 96.1690381,27.3087505 87.4870381,18.5627505 C78.8040381,9.81475054 64.7330381,9.81275054 56.0550381,18.5547505 L50.0010381,24.6537505 Z M71.6820381,19.9997505 L71.5960381,20.0007505 L71.5110381,20.0017505 L71.4270381,20.0037505 L71.3410381,20.0057505 L71.2550381,20.0087505 L71.1700381,20.0117505 L71.0850381,20.0157505 L71.0010381,20.0207505 L70.9150381,20.0247505 L70.8290381,20.0307505 L70.7460381,20.0367505 L70.6600381,20.0427505 L70.5740381,20.0497505 L70.4900381,20.0567505 L70.4050381,20.0647505 L70.3200381,20.0737505 L70.2350381,20.0827505 L70.1510381,20.0917505 L70.0660381,20.1017505 L69.9810381,20.1127505 L69.8970381,20.1227505 L69.8120381,20.1347505 L69.7270381,20.1467505 L69.6420381,20.1597505 L69.5590381,20.1717505 L69.4750381,20.1857505 L69.3900381,20.1997505 L69.3070381,20.2137505 L69.2230381,20.2297505 L69.1380381,20.2447505 L69.0550381,20.2607505 L68.9700381,20.2777505 L68.8870381,20.2947505 L68.8040381,20.3127505 L68.7200381,20.3307505 L68.6370381,20.3487505 L68.5530381,20.3687505 L68.4700381,20.3877505 L68.3870381,20.4077505 L68.3040381,20.4287505 L68.2210381,20.4497505 L68.1380381,20.4717505 L68.0550381,20.4937505 L67.9730381,20.5167505 L67.8910381,20.5397505 L67.8090381,20.5627505 L67.7260381,20.5877505 L67.6440381,20.6127505 L67.5630381,20.6367505 L67.4810381,20.6627505 L67.3990381,20.6897505 L67.3170381,20.7157505 L67.2360381,20.7437505 L67.1560381,20.7707505 L67.0740381,20.7997505 L66.9930381,20.8287505 L66.9110381,20.8577505 L66.8310381,20.8877505 L66.7510381,20.9177505 L66.6710381,20.9477505 L66.5910381,20.9797505 L66.5110381,21.0107505 L66.4300381,21.0437505 L66.3510381,21.0767505 L66.2720381,21.1097505 L66.1920381,21.1437505 L66.1130381,21.1787505 L66.0340381,21.2127505 L65.9550381,21.2487505 L65.8770381,21.2837505 L65.7980381,21.3207505 L65.7190381,21.3577505 L65.6410381,21.3947505 L65.5640381,21.4327505 L65.4870381,21.4707505 L65.4090381,21.5097505 L65.3310381,21.5497505 L65.2540381,21.5897505 L65.1770381,21.6297505 L65.1000381,21.6707505 L65.0230381,21.7127505 L64.9470381,21.7547505 L64.8710381,21.7967505 L64.7950381,21.8397505 L64.7190381,21.8837505 L64.6420381,21.9277505 L64.5680381,21.9717505 L64.4930381,22.0167505 L64.4170381,22.0627505 L64.3420381,22.1087505 L64.2680381,22.1557505 L64.1940381,22.2027505 L64.1190381,22.2507505 L64.0450381,22.2987505 L63.9720381,22.3477505 L63.8980381,22.3967505 L63.8250381,22.4467505 L63.7520381,22.4967505 L63.6780381,22.5477505 L63.6060381,22.5987505 L63.5340381,22.6497505 L63.4610381,22.7037505 L63.3890381,22.7567505 L63.3170381,22.8097505 L63.2460381,22.8637505 L63.1750381,22.9177505 L63.1030381,22.9737505 L63.0330381,23.0287505 L62.9620381,23.0847505 L62.8920381,23.1417505 L62.8220381,23.1987505 L62.7520381,23.2567505 L62.6820381,23.3157505 L62.6120381,23.3747505 L62.5440381,23.4327505 L62.4750381,23.4937505 L62.4060381,23.5537505 L62.3370381,23.6147505 L62.2700381,23.6767505 L62.2020381,23.7377505 L62.1340381,23.8017505 L62.0660381,23.8657505 L62.0000381,23.9287505 L61.9320381,23.9937505 L61.8650381,24.0587505 L61.7990381,24.1237505 L61.7240381,24.1997505 L50.0010381,36.0097505 L38.2780381,24.1997505 L38.2030381,24.1247505 L38.1370381,24.0587505 L38.0700381,23.9937505 L38.0030381,23.9297505 L37.9360381,23.8657505 L37.8680381,23.8017505 L37.8010381,23.7397505 L37.7330381,23.6777505 L37.6650381,23.6157505 L37.5970381,23.5547505 L37.5280381,23.4937505 L37.4590381,23.4337505 L37.3900381,23.3747505 L37.3210381,23.3157505 L37.2510381,23.2577505 L37.1810381,23.1997505 L37.1110381,23.1427505 L37.0410381,23.0857505 L36.9700381,23.0297505 L36.9000381,22.9747505 L36.8280381,22.9187505 L36.7570381,22.8647505 L36.6860381,22.8107505 L36.6140381,22.7577505 L36.5420381,22.7047505 L36.4690381,22.6517505 L36.3970381,22.5997505 L36.3250381,22.5487505 L36.2520381,22.4977505 L36.1780381,22.4477505 L36.1070381,22.3987505 L36.0320381,22.3487505 L35.9580381,22.2997505 L35.8840381,22.2517505 L35.8100381,22.2037505 L35.7360381,22.1577505 L35.6620381,22.1107505 L35.5860381,22.0647505 L35.5110381,22.0187505 L35.4360381,21.9737505 L35.3610381,21.9297505 L35.2850381,21.8857505 L35.2090381,21.8417505 L35.1330381,21.7987505 L35.0570381,21.7567505 L34.9800381,21.7137505 L34.9040381,21.6727505 L34.8280381,21.6317505 L34.7500381,21.5917505 L34.6730381,21.5517505 L34.5960381,21.5117505 L34.5170381,21.4727505 L34.4410381,21.4347505 L34.3630381,21.3967505 L34.2840381,21.3597505 L34.2060381,21.3227505 L34.1280381,21.2867505 L34.0490381,21.2497505 L33.9690381,21.2147505 L33.8910381,21.1807505 L33.8120381,21.1457505 L33.7320381,21.1117505 L33.6530381,21.0787505 L33.5740381,21.0457505 L33.4930381,21.0137505 L33.4130381,20.9817505 L33.3330381,20.9507505 L33.2530381,20.9197505 L33.1730381,20.8897505 L33.0920381,20.8597505 L33.0110381,20.8297505 L32.9300381,20.8017505 L32.8490381,20.7737505 L32.7670381,20.7457505 L32.6860381,20.7177505 L32.6050381,20.6917505 L32.5230381,20.6657505 L32.4410381,20.6397505 L32.3600381,20.6147505 L32.2780381,20.5897505 L32.1950381,20.5657505 L32.1120381,20.5417505 L32.0310381,20.5187505 L31.9480381,20.4957505 L31.8650381,20.4737505 L31.7830381,20.4517505 L31.6990381,20.4307505 L31.6170381,20.4097505 L31.5340381,20.3897505 L31.4500381,20.3707505 L31.3660381,20.3507505 L31.2840381,20.3327505 L31.2000381,20.3147505 L31.1160381,20.2967505 L31.0330381,20.2797505 L30.9490381,20.2627505 L30.8650381,20.2467505 L30.7820381,20.2317505 L30.6970381,20.2167505 L30.6130381,20.2017505 L30.5290381,20.1877505 L30.4440381,20.1737505 L30.3610381,20.1617505 L30.2760381,20.1487505 L30.1910381,20.1367505 L30.1060381,20.1257505 L30.0220381,20.1147505 L29.9370381,20.1037505 L29.8520381,20.0937505 L29.7680381,20.0847505 L29.6830381,20.0757505 L29.5970381,20.0667505 L29.5130381,20.0587505 L29.4280381,20.0517505 L29.3430381,20.0447505 L29.2570381,20.0387505 L29.1730381,20.0327505 L29.0880381,20.0277505 L29.0030381,20.0227505 L28.9170381,20.0177505 L28.8320381,20.0147505 L28.7470381,20.0107505 L28.6620381,20.0077505 L28.5760381,20.0057505 L28.4910381,20.0037505 L28.4050381,20.0027505 L28.3210381,20.0017505 L28.2360381,20.0017505 L28.1500381,20.0017505 L28.0640381,20.0027505 L27.9790381,20.0037505 L27.8940381,20.0057505 L27.8080381,20.0087505 L27.7240381,20.0107505 L27.6380381,20.0147505 L27.5530381,20.0187505 L27.4680381,20.0227505 L27.3820381,20.0277505 L27.2980381,20.0327505 L27.2120381,20.0387505 L27.1260381,20.0457505 L27.0430381,20.0517505 L26.9570381,20.0597505 L26.8720381,20.0677505 L26.7880381,20.0757505 L26.7030381,20.0847505 L26.6170381,20.0947505 L26.5330381,20.1047505 L26.4480381,20.1147505 L26.3640381,20.1257505 L26.2790381,20.1377505 L26.1940381,20.1497505 L26.1090381,20.1627505 L26.0250381,20.1747505 L25.9410381,20.1887505 L25.8570381,20.2027505 L25.7730381,20.2177505 L25.6880381,20.2327505 L25.6040381,20.2477505 L25.5209381,20.2637505 L25.4376381,20.2807505 L25.3532381,20.2977505 L25.2691381,20.3157505 L25.1859381,20.3337505 L25.1028381,20.3527505 L25.0188381,20.3717505 L24.9351381,20.3917505 L24.8524381,20.4117505 L24.7697381,20.4317505 L24.6862381,20.4537505 L24.6039381,20.4747505 L24.5217381,20.4967505 L24.4383381,20.5197505 L24.3561381,20.5437505 L24.2734381,20.5667505 L24.1917381,20.5917505 L24.1100381,20.6157505 L24.0275381,20.6417505 L23.9460381,20.6667505 L23.8636381,20.6937505 L23.7815381,20.7207505 L23.7008381,20.7477505 L23.6199381,20.7747505 L23.5390381,20.8037505 L23.4572381,20.8327505 L23.3759381,20.8617505 L23.2958381,20.8917505 L23.2156381,20.9217505 L23.1357381,20.9527505 L23.0550381,20.9837505 L22.9741381,21.0157505 L22.8948381,21.0487505 L22.8152381,21.0807505 L22.7349381,21.1147505 L22.6562381,21.1487505 L22.5773381,21.1827505 L22.4975381,21.2177505 L22.4183381,21.2537505 L22.3400381,21.2887505 L22.2617381,21.3257505 L22.1828381,21.3627505 L22.1047381,21.3997505 L22.0271381,21.4377505 L21.9488381,21.4767505 L21.8706381,21.5157505 L21.7937381,21.5547505 L21.7169381,21.5947505 L21.6391381,21.6357505 L21.5624381,21.6767505 L21.4863381,21.7177505 L21.4092381,21.7597505 L21.3321381,21.8027505 L21.2567381,21.8457505 L21.1810381,21.8887505 L21.1054381,21.9327505 L21.0296381,21.9777505 L20.9539381,22.0237505 L20.8791381,22.0687505 L20.8044381,22.1147505 L20.7302381,22.1617505 L20.6549381,22.2087505 L20.5803381,22.2567505 L20.5069381,22.3047505 L20.4331381,22.3537505 L20.3592381,22.4027505 L20.2862381,22.4527505 L20.2121381,22.5037505 L20.1397381,22.5537505 L20.0674381,22.6047505 L19.9942381,22.6577505 L19.9221381,22.7097505 L19.8501381,22.7627505 L19.7783381,22.8167505 L19.7064381,22.8707505 L19.6354381,22.9247505 L19.5640381,22.9807505 L19.4930381,23.0357505 L19.4228381,23.0917505 L19.3521381,23.1487505 L19.2821381,23.2057505 L19.2118381,23.2647505 L19.1420381,23.3227505 L19.0729381,23.3817505 L19.0034381,23.4407505 L18.9340381,23.5017505 L18.8658381,23.5617505 L18.7983381,23.6217505 L18.7293381,23.6847505 L18.6605381,23.7477505 L18.5928381,23.8097505 L18.5258381,23.8727505 L18.4589381,23.9367505 L18.3917381,24.0017505 L18.3251381,24.0667505 L18.2587381,24.1317505 L18.1919381,24.1987505 L18.1266381,24.2647505 L18.0614381,24.3317505 L17.9965381,24.3997505 L17.9326381,24.4667505 L17.8689381,24.5347505 L17.8060381,24.6027505 L17.7432381,24.6717505 L17.6810381,24.7407505 L17.6200381,24.8087505 L17.5596381,24.8777505 L17.4990381,24.9477505 L17.4390381,25.0167505 L17.3801381,25.0867505 L17.3209381,25.1577505 L17.2627381,25.2277505 L17.2058381,25.2977505 L17.1486381,25.3687505 L17.0918381,25.4407505 L17.0359381,25.5117505 L16.9802381,25.5837505 L16.9253381,25.6557505 L16.8713381,25.7277505 L16.8173381,25.7997505 L16.7640381,25.8727505 L16.7109381,25.9457505 L16.6581381,26.0197505 L16.6066381,26.0927505 L16.5561381,26.1647505 L16.5047381,26.2397505 L16.4542381,26.3137505 L16.4051381,26.3877505 L16.3556381,26.4627505 L16.3066381,26.5377505 L16.2589381,26.6117505 L16.2112381,26.6877505 L16.1639381,26.7627505 L16.1170381,26.8387505 L16.0709381,26.9147505 L16.0258381,26.9897505 L15.9804381,27.0667505 L15.9357381,27.1437505 L15.8918381,27.2197505 L15.8481381,27.2977505 L15.8052381,27.3747505 L15.7625381,27.4517505 L15.7202381,27.5297505 L15.6792381,27.6067505 L15.6380381,27.6857505 L15.5972381,27.7637505 L15.5575381,27.8417505 L15.5180381,27.9207505 L15.4787381,27.9997505 L15.4404381,28.0787505 L15.4026381,28.1577505 L15.3649381,28.2377505 L15.3280381,28.3167505 L15.2915381,28.3967505 L15.2553381,28.4767505 L15.2200381,28.5567505 L15.1851381,28.6377505 L15.1506381,28.7177505 L15.1166381,28.7987505 L15.0830381,28.8797505 L15.0503381,28.9607505 L15.0178381,29.0417505 L14.9861381,29.1227505 L14.9548381,29.2037505 L14.9233381,29.2867505 L14.8931381,29.3687505 L14.8634381,29.4497505 L14.8340381,29.5327505 L14.8050381,29.6147505 L14.7766381,29.6977505 L14.7488381,29.7797505 L14.7212381,29.8637505 L14.6945381,29.9457505 L14.6682381,30.0287505 L14.6422381,30.1127505 L14.6171381,30.1957505 L14.5922381,30.2787505 L14.5677381,30.3627505 L14.5439381,30.4467505 L14.5205381,30.5307505 L14.4976381,30.6157505 L14.4755381,30.6987505 L14.4539381,30.7827505 L14.4324381,30.8677505 L14.4115381,30.9527505 L14.3914381,31.0367505 L14.3716381,31.1217505 L14.3525381,31.2057505 L14.3337381,31.2917505 L14.3154381,31.3767505 L14.2977381,31.4617505 L14.2804381,31.5477505 L14.2638381,31.6327505 L14.2476381,31.7177505 L14.2319381,31.8037505 L14.2167381,31.8897505 L14.2020381,31.9757505 L14.1880381,32.0607505 L14.1743381,32.1467505 L14.1611381,32.2337505 L14.1487381,32.3187505 L14.1365381,32.4047505 L14.1249381,32.4917505 L14.1138381,32.5777505 L14.1032381,32.6647505 L14.0933381,32.7497505 L14.0837381,32.8367505 L14.0747381,32.9237505 L14.0662381,33.0097505 L14.0582381,33.0957505 L14.0507381,33.1827505 L14.0437381,33.2697505 L14.0373381,33.3567505 L14.0314381,33.4427505 L14.0260381,33.5297505 L14.0210381,33.6167505 L14.0167381,33.7027505 L14.0128381,33.7917505 L14.0094381,33.8787505 L14.0066381,33.9647505 L14.0042381,34.0507505 L14.0024381,34.1377505 L14.0011381,34.2257505 L14.0003381,34.3127505 L14.0000381,34.3987505 L14.0003381,34.4857505 L14.0010381,34.5727505 L14.0023381,34.6597505 L14.0041381,34.7467505 L14.0064381,34.8347505 L14.0092381,34.9217505 L14.0125381,35.0077505 L14.0163381,35.0937505 L14.0207381,35.1817505 L14.0256381,35.2687505 L14.0309381,35.3547505 L14.0368381,35.4407505 L14.0432381,35.5277505 L14.0502381,35.6157505 L14.0576381,35.7017505 L14.0656381,35.7887505 L14.0741381,35.8747505 L14.0830381,35.9607505 L14.0925381,36.0477505 L14.1025381,36.1337505 L14.1131381,36.2207505 L14.1241381,36.3077505 L14.1355381,36.3927505 L14.1476381,36.4787505 L14.1602381,36.5647505 L14.1732381,36.6507505 L14.1868381,36.7367505 L14.2010381,36.8227505 L14.2156381,36.9087505 L14.2308381,36.9947505 L14.2463381,37.0797505 L14.2625381,37.1647505 L14.2791381,37.2507505 L14.2962381,37.3347505 L14.3141381,37.4217505 L14.3323381,37.5067505 L14.3506381,37.5897505 L14.3699381,37.6747505 L14.3899381,37.7607505 L14.4099381,37.8447505 L14.4308381,37.9297505 L14.4520381,38.0137505 L14.4736381,38.0977505 L14.4959381,38.1817505 L14.5187381,38.2667505 L14.5421381,38.3507505 L14.5659381,38.4347505 L14.5900381,38.5177505 L14.6148381,38.6007505 L14.6402381,38.6847505 L14.6661381,38.7677505 L14.6924381,38.8517505 L14.7190381,38.9337505 L14.7464381,39.0167505 L14.7740381,39.0987505 L14.8024381,39.1807505 L14.8317381,39.2647505 L14.8608381,39.3467505 L14.8903381,39.4277505 L14.9207381,39.5097505 L14.9517381,39.5917505 L14.9833381,39.6737505 L15.0151381,39.7547505 L15.0475381,39.8357505 L15.0805381,39.9167505 L15.1136381,39.9977505 L15.1472381,40.0777505 L15.1821381,40.1587505 L15.2171381,40.2397505 L15.2522381,40.3187505 L15.2880381,40.3987505 L15.3244381,40.4777505 L15.3615381,40.5577505 L15.3991381,40.6377505 L15.4367381,40.7167505 L15.4750381,40.7947505 L15.5141381,40.8737505 L15.5536381,40.9527505 L15.5936381,41.0307505 L15.6341381,41.1097505 L15.6750381,41.1877505 L15.7166381,41.2657505 L15.7584381,41.3427505 L15.8006381,41.4197505 L15.8441381,41.4977505 L15.8875381,41.5737505 L15.9314381,41.6507505 L15.9759381,41.7267505 L16.0206381,41.8027505 L16.0663381,41.8787505 L16.1128381,41.9557505 L16.1592381,42.0307505 L16.2059381,42.1057505 L16.2538381,42.1817505 L16.3021381,42.2567505 L16.3505381,42.3307505 L16.3992381,42.4047505 L16.4490381,42.4787505 L16.4995381,42.5537505 L16.5500381,42.6267505 L16.6015381,42.7007505 L16.6530381,42.7737505 L16.7049381,42.8467505 L16.7579381,42.9197505 L16.8112381,42.9927505 L16.8651381,43.0647505 L16.9191381,43.1367505 L16.9741381,43.2087505 L17.0295381,43.2797505 L17.0854381,43.3517505 L17.1423381,43.4227505 L17.1990381,43.4937505 L17.2564381,43.5637505 L17.3144381,43.6347505 L17.3731381,43.7047505 L17.4318381,43.7737505 L17.4918381,43.8437505 L17.5519381,43.9127505 L17.6122381,43.9817505 L17.6745381,44.0517505 L17.7365381,44.1197505 L17.7983381,44.1877505 L17.8607381,44.2547505 L17.9243381,44.3227505 L17.9890381,44.3907505 L18.0529381,44.4577505 L18.1180381,44.5247505 L18.1931381,44.6007505 L39.9590381,66.5277505 L50.0010381,76.6440505 L81.8090381,44.6007505 L81.8840381,44.5247505 L81.9490381,44.4577505 L82.0130381,44.3907505 L82.0770381,44.3237505 L82.1410381,44.2557505 L82.2040381,44.1877505 L82.2660381,44.1197505 L82.3270381,44.0517505 L82.3890381,43.9827505 L82.4500381,43.9137505 L82.5090381,43.8447505 L82.5700381,43.7747505 L82.6280381,43.7047505 L82.6870381,43.6357505 L82.7450381,43.5647505 L82.8020381,43.4947505 L82.8590381,43.4237505 L82.9160381,43.3527505 L82.9720381,43.2807505 L83.0270381,43.2097505 L83.0820381,43.1377505 L83.1360381,43.0657505 L83.1890381,42.9937505 L83.2430381,42.9217505 L83.2960381,42.8487505 L83.3480381,42.7747505 L83.4000381,42.7017505 L83.4500381,42.6287505 L83.5010381,42.5547505 L83.5520381,42.4807505 L83.6010381,42.4077505 L83.6500381,42.3327505 L83.6990381,42.2577505 L83.7470381,42.1827505 L83.7950381,42.1067505 L83.8420381,42.0317505 L83.8880381,41.9567505 L83.9340381,41.8807505 L83.9790381,41.8057505 L84.0250381,41.7287505 L84.0690381,41.6517505 L84.1130381,41.5757505 L84.1560381,41.4987505 L84.1990381,41.4217505 L84.2420381,41.3447505 L84.2840381,41.2667505 L84.3250381,41.1887505 L84.3660381,41.1117505 L84.4070381,41.0327505 L84.4470381,40.9537505 L84.4860381,40.8767505 L84.5250381,40.7977505 L84.5630381,40.7187505 L84.6010381,40.6387505 L84.6390381,40.5597505 L84.6750381,40.4807505 L84.7120381,40.4007505 L84.7480381,40.3207505 L84.7830381,40.2407505 L84.8180381,40.1597505 L84.8530381,40.0797505 L84.8860381,39.9997505 L84.9200381,39.9187505 L84.9520381,39.8377505 L84.9850381,39.7567505 L85.0170381,39.6747505 L85.0480381,39.5937505 L85.0790381,39.5117505 L85.1090381,39.4307505 L85.1400381,39.3467505 L85.1690381,39.2647505 L85.1970381,39.1847505 L85.2260381,39.1017505 L85.2540381,39.0177505 L85.2810381,38.9357505 L85.3080381,38.8527505 L85.3340381,38.7697505 L85.3600381,38.6857505 L85.3850381,38.6017505 L85.4100381,38.5197505 L85.4340381,38.4357505 L85.4580381,38.3527505 L85.4810381,38.2687505 L85.5040381,38.1837505 L85.5260381,38.0997505 L85.5480381,38.0157505 L85.5690381,37.9307505 L85.5900381,37.8467505 L85.6100381,37.7617505 L85.6300381,37.6767505 L85.6490381,37.5917505 L85.6680381,37.5077505 L85.6860381,37.4227505 L85.7040381,37.3367505 L85.7210381,37.2517505 L85.7370381,37.1667505 L85.7530381,37.0817505 L85.7690381,36.9957505 L85.7840381,36.9097505 L85.7990381,36.8237505 L85.8130381,36.7377505 L85.8270381,36.6517505 L85.8400381,36.5667505 L85.8520381,36.4797505 L85.8640381,36.3937505 L85.8760381,36.3077505 L85.8870381,36.2217505 L85.8970381,36.1347505 L85.9070381,36.0487505 L85.9170381,35.9617505 L85.9260381,35.8757505 L85.9340381,35.7897505 L85.9420381,35.7027505 L85.9500381,35.6167505 L85.9570381,35.5287505 L85.9630381,35.4417505 L85.9690381,35.3557505 L85.9740381,35.2697505 L85.9790381,35.1827505 L85.9840381,35.0947505 L85.9870381,35.0087505 L85.9910381,34.9217505 L85.9940381,34.8337505 L85.9960381,34.7477505 L85.9980381,34.6607505 L85.9990381,34.5737505 L86.0000381,34.4867505 L86.0000381,34.3987505 L86.0000381,34.3127505 L85.9990381,34.2257505 L85.9980381,34.1387505 L85.9960381,34.0517505 L85.9930381,33.9637505 L85.9910381,33.8777505 L85.9870381,33.7907505 L85.9830381,33.7047505 L85.9790381,33.6177505 L85.9740381,33.5297505 L85.9690381,33.4437505 L85.9630381,33.3567505 L85.9560381,33.2697505 L85.9490381,33.1837505 L85.9420381,33.0967505 L85.9340381,33.0097505 L85.9250381,32.9227505 L85.9160381,32.8367505 L85.9070381,32.7507505 L85.8970381,32.6627505 L85.8860381,32.5767505 L85.8750381,32.4917505 L85.8640381,32.4047505 L85.8520381,32.3187505 L85.8390381,32.2327505 L85.8260381,32.1457505 L85.8120381,32.0597505 L85.7980381,31.9747505 L85.7830381,31.8887505 L85.7680381,31.8027505 L85.7530381,31.7177505 L85.7360381,31.6327505 L85.7200381,31.5467505 L85.7020381,31.4607505 L85.6850381,31.3757505 L85.6670381,31.2907505 L85.6480381,31.2057505 L85.6290381,31.1207505 L85.6090381,31.0367505 L85.5880381,30.9507505 L85.5680381,30.8657505 L85.5460381,30.7827505 L85.5250381,30.6987505 L85.5030381,30.6147505 L85.4790381,30.5287505 L85.4560381,30.4457505 L85.4320381,30.3617505 L85.4080381,30.2777505 L85.3830381,30.1947505 L85.3580381,30.1107505 L85.3320381,30.0277505 L85.3060381,29.9447505 L85.2790381,29.8617505 L85.2520381,29.7787505 L85.2240381,29.6967505 L85.1950381,29.6147505 L85.1660381,29.5307505 L85.1370381,29.4487505 L85.1070381,29.3677505 L85.0770381,29.2857505 L85.0460381,29.2037505 L85.0140381,29.1207505 L84.9820381,29.0407505 L84.9500381,28.9587505 L84.9170381,28.8777505 L84.8840381,28.7977505 L84.8500381,28.7167505 L84.8150381,28.6357505 L84.7800381,28.5557505 L84.7450381,28.4757505 L84.7090381,28.3957505 L84.6730381,28.3157505 L84.6350381,28.2357505 L84.5980381,28.1557505 L84.5600381,28.0777505 L84.5220381,27.9987505 L84.4830381,27.9197505 L84.4430381,27.8407505 L84.4030381,27.7627505 L84.3630381,27.6837505 L84.3210381,27.6057505 L84.2800381,27.5277505 L84.2380381,27.4507505 L84.1960381,27.3737505 L84.1520381,27.2957505 L84.1090381,27.2187505 L84.0650381,27.1427505 L84.0200381,27.0657505 L83.9750381,26.9897505 L83.9290381,26.9127505 L83.8830381,26.8377505 L83.8370381,26.7627505 L83.7900381,26.6867505 L83.7420381,26.6107505 L83.6940381,26.5367505 L83.6450381,26.4617505 L83.5960381,26.3867505 L83.5460381,26.3127505 L83.4960381,26.2377505 L83.4460381,26.1647505 L83.3940381,26.0917505 L83.3430381,26.0177505 L83.2910381,25.9447505 L83.2370381,25.8717505 L83.1840381,25.7987505 L83.1300381,25.7267505 L83.0760381,25.6547505 L83.0210381,25.5827505 L82.9660381,25.5117505 L82.9090381,25.4397505 L82.8530381,25.3677505 L82.7960381,25.2977505 L82.7380381,25.2267505 L82.6800381,25.1567505 L82.6210381,25.0857505 L82.5620381,25.0167505 L82.5030381,24.9467505 L82.4420381,24.8767505 L82.3820381,24.8087505 L82.3210381,24.7397505 L82.2580381,24.6707505 L82.1960381,24.6027505 L82.1330381,24.5347505 L82.0690381,24.4667505 L82.0050381,24.3997505 L81.9410381,24.3327505 L81.8750381,24.2647505 L81.8090381,24.1977505 L81.7430381,24.1317505 L81.6770381,24.0667505 L81.6100381,24.0017505 L81.5430381,23.9367505 L81.4760381,23.8727505 L81.4090381,23.8097505 L81.3410381,23.7467505 L81.2730381,23.6837505 L81.2050381,23.6227505 L81.1350381,23.5607505 L81.0670381,23.5007505 L80.9980381,23.4407505 L80.9290381,23.3807505 L80.8590381,23.3217505 L80.7890381,23.2637505 L80.7200381,23.2057505 L80.6490381,23.1477505 L80.5790381,23.0917505 L80.5090381,23.0357505 L80.4370381,22.9797505 L80.3660381,22.9237505 L80.2940381,22.8697505 L80.2230381,22.8157505 L80.1510381,22.7617505 L80.0790381,22.7087505 L80.0060381,22.6557505 L79.9350381,22.6047505 L79.8620381,22.5537505 L79.7880381,22.5017505 L79.7150381,22.4517505 L79.6410381,22.4017505 L79.5680381,22.3527505 L79.4950381,22.3037505 L79.4200381,22.2557505 L79.3460381,22.2077505 L79.2710381,22.1607505 L79.1970381,22.1137505 L79.1220381,22.0677505 L79.0470381,22.0217505 L78.9710381,21.9767505 L78.8960381,21.9317505 L78.8200381,21.8877505 L78.7450381,21.8447505 L78.6680381,21.8007505 L78.5910381,21.7577505 L78.5150381,21.7167505 L78.4380381,21.6747505 L78.3610381,21.6337505 L78.2840381,21.5937505 L78.2060381,21.5527505 L78.1300381,21.5137505 L78.0520381,21.4747505 L77.9740381,21.4367505 L77.8960381,21.3987505 L77.8180381,21.3607505 L77.7400381,21.3247505 L77.6610381,21.2877505 L77.5820381,21.2517505 L77.5030381,21.2157505 L77.4240381,21.1817505 L77.3450381,21.1467505 L77.2640381,21.1127505 L77.1860381,21.0797505 L77.1060381,21.0467505 L77.0260381,21.0147505 L76.9460381,20.9827505 L76.8650381,20.9507505 L76.7860381,20.9207505 L76.7050381,20.8897505 L76.6230381,20.8597505 L76.5430381,20.8307505 L76.4630381,20.8017505 L76.3810381,20.7737505 L76.2990381,20.7457505 L76.2190381,20.7187505 L76.1370381,20.6917505 L76.0550381,20.6647505 L75.9730381,20.6397505 L75.8920381,20.6147505 L75.8100381,20.5897505 L75.7270381,20.5657505 L75.6450381,20.5417505 L75.5620381,20.5177505 L75.4800381,20.4957505 L75.3970381,20.4737505 L75.3150381,20.4517505 L75.2310381,20.4297505 L75.1470381,20.4097505 L75.0660381,20.3897505 L74.9830381,20.3697505 L74.8990381,20.3507505 L74.8150381,20.3317505 L74.7310381,20.3137505 L74.6480381,20.2957505 L74.5650381,20.2787505 L74.4810381,20.2627505 L74.3970381,20.2457505 L74.3130381,20.2307505 L74.2280381,20.2157505 L74.1440381,20.2007505 L74.0610381,20.1867505 L73.9760381,20.1737505 L73.8910381,20.1597505 L73.8070381,20.1477505 L73.7230381,20.1357505 L73.6390381,20.1237505 L73.5530381,20.1127505 L73.4680381,20.1027505 L73.3840381,20.0927505 L73.3000381,20.0827505 L73.2150381,20.0737505 L73.1300381,20.0657505 L73.0440381,20.0577505 L72.9600381,20.0497505 L72.8750381,20.0437505 L72.7890381,20.0367505 L72.7050381,20.0307505 L72.6200381,20.0257505 L72.5340381,20.0207505 L72.4480381,20.0167505 L72.3640381,20.0127505 L72.2790381,20.0087505 L72.1940381,20.0067505 L72.1080381,20.0037505 L72.0220381,20.0017505 L71.9380381,20.0007505 L71.8530381,19.9997505 L71.7680381,19.9997505 L71.6820381,19.9997505 L71.6820381,19.9997505 Z" sketch:type="MSShapeGroup"></path></g></g></svg>