<svg xmlns="http://www.w3.org/2000/svg" xmlns:xlink="http://www.w3.org/1999/xlink" version="1.1" x="0px" y="0px" viewBox="0 0 300 300" enable-background="new 0 0 300 300" xml:space="preserve"><g><path d="M271.829,269.062H29.026l-0.019-15.167c-0.155-26.51-0.283-49.388,36.771-57.938l1.982-0.463   c17.149-3.94,38.483-8.858,42.005-16.674c1.126-2.484,0.36-6.18-2.253-11.008c-24.411-44.934-28.982-80.25-12.83-107.377   c11.156-18.746,31.473-29.497,55.749-29.497c24.083,0,44.277,10.583,55.388,29.072c16.113,26.78,11.697,62.212-12.438,107.725   c-2.581,4.867-3.314,8.613-2.176,11.111c3.566,7.828,24.314,12.604,42.598,16.827l1.274,0.296   c37.041,8.55,36.925,31.429,36.758,57.925L271.829,269.062z M47.122,250.928h206.611c0.109-24.526-0.649-32.213-22.724-37.285   l-1.256-0.297c-24.559-5.665-47.74-11.008-55.034-26.96c-3.604-7.893-2.703-17.033,2.652-27.141   c21.038-39.655,25.621-68.752,12.907-89.88c-7.866-13.081-22.022-20.291-39.848-20.291c-17.993,0-32.239,7.338-40.164,20.651   c-12.746,21.398-8.066,50.341,13.184,89.442c5.465,10.056,6.425,19.196,2.852,27.102c-7.223,16.029-30.173,21.309-54.468,26.896   l-1.983,0.463C47.779,218.722,47.013,226.407,47.122,250.928z"></path></g></svg>