<svg xmlns="http://www.w3.org/2000/svg" xmlns:xlink="http://www.w3.org/1999/xlink" version="1.1" x="0px" y="0px" viewBox="0 0 100 100" enable-background="new 0 0 100 100" xml:space="preserve"><path d="M57.189,32.77c-0.355-1.552-0.767-3.022-1.224-4.402C53.641,28.192,51.8,26.273,51.8,23.9c0-0.944,0.296-1.821,0.795-2.547  C51.593,20.038,50.668,19.4,50,19.4c-2.046,0-5.189,4.857-7.168,13.379c2.32,0.84,4.718,1.846,7.168,3.018  C52.457,34.619,54.864,33.614,57.189,32.77"></path><path d="M43.7,60.913c-0.744-0.427-1.459-0.87-2.18-1.312c0.156,1.392,0.358,2.735,0.58,4.052c1.251-0.464,2.519-0.977,3.804-1.535  C45.17,61.718,44.438,61.338,43.7,60.913"></path><path d="M45.904,37.885c-1.281-0.559-2.545-1.069-3.79-1.531c-0.222,1.287-0.42,2.625-0.582,4.042  c0.716-0.439,1.428-0.881,2.168-1.305C44.438,38.664,45.17,38.284,45.904,37.885"></path><path d="M56.3,39.089c0.742,0.429,1.459,0.87,2.178,1.313c-0.156-1.394-0.356-2.735-0.58-4.052  c-1.249,0.462-2.515,0.976-3.802,1.535C54.83,38.284,55.562,38.664,56.3,39.089"></path><path d="M23.499,34.7c-1.022,1.771,1.606,6.918,7.993,12.89c1.888-1.589,3.946-3.167,6.186-4.702  c0.211-2.707,0.549-5.282,0.98-7.709c-3.844-1.185-7.384-1.865-10.258-1.865C25.377,33.313,23.886,34.032,23.499,34.7"></path><path d="M31.475,52.396c-1.145,1.067-2.188,2.134-3.142,3.196c0.285,1.791-0.521,3.649-2.183,4.609  c-0.51,0.293-1.055,0.469-1.607,0.55c-1.207,2.208-1.468,3.818-1.044,4.551c0.387,0.671,1.878,1.387,4.897,1.387  c2.878,0,6.416-0.68,10.262-1.865c-0.432-2.428-0.77-5-0.98-7.708C35.432,55.576,33.366,53.992,31.475,52.396"></path><path d="M34.222,49.991c1.009,0.842,2.072,1.688,3.224,2.538c-0.021-0.838-0.045-1.675-0.045-2.527c0-0.86,0.024-1.7,0.045-2.542  C36.317,48.293,35.25,49.139,34.222,49.991"></path><path d="M42.811,67.232c0.471,2.046,1.018,3.969,1.659,5.709c1.938,5.263,4.226,7.66,5.53,7.66c2.046,0,5.189-4.855,7.168-13.378  c-2.32-0.84-4.718-1.844-7.168-3.017C47.543,65.383,45.138,66.39,42.811,67.232"></path><path d="M76.501,34.7c-0.387-0.668-1.878-1.387-4.897-1.387c-2.878,0-6.418,0.68-10.262,1.865c0.432,2.427,0.77,5.002,0.98,7.709  c2.246,1.538,4.311,3.124,6.201,4.718c1.533-1.427,2.926-2.862,4.106-4.284C76.22,39.012,77.151,35.832,76.501,34.7"></path><path d="M50,5C25.187,5,5,25.188,5,50c0,24.813,20.187,45,45,45s45-20.187,45-45C95,25.188,74.813,5,50,5 M79.619,67.1  c-0.84,1.456-2.428,2.385-4.563,2.844c-0.099,0.415-0.235,0.821-0.457,1.209c-1.242,2.15-3.995,2.888-6.148,1.646  c-1.175-0.679-1.907-1.809-2.148-3.041c-1.784-0.314-3.694-0.789-5.685-1.389C58.378,77.877,54.465,84.2,50,84.2  s-8.378-6.321-10.617-15.831c-4.124,1.241-7.893,1.919-10.986,1.919c-3.909,0-6.77-1.03-8.016-3.188  c-1.099-1.906-0.8-4.463,0.631-7.371c-0.389-0.325-0.74-0.71-1.007-1.176c-1.245-2.153-0.507-4.906,1.646-6.147  c1.486-0.861,3.252-0.754,4.614,0.092c0.771-0.826,1.618-1.66,2.508-2.498c-7.108-6.688-10.624-13.234-8.392-17.1  c1.246-2.155,4.108-3.187,8.016-3.187c3.094,0,6.862,0.679,10.986,1.92C41.622,22.125,45.535,15.8,50,15.8  c2.035,0,3.95,1.341,5.653,3.665c0.211-0.028,0.425-0.065,0.646-0.065c2.485,0,4.5,2.015,4.5,4.5c0,1.299-0.557,2.458-1.435,3.278  c0.461,1.391,0.879,2.874,1.252,4.456c4.122-1.241,7.893-1.921,10.982-1.921c3.913,0,6.771,1.032,8.02,3.187  c2.23,3.866-1.283,10.412-8.392,17.1C78.336,56.692,81.85,63.236,79.619,67.1"></path><path d="M65.778,50.009c-1.009-0.84-2.074-1.686-3.226-2.537C62.575,48.311,62.6,49.147,62.6,50c0,0.859-0.024,1.7-0.047,2.542  C63.683,51.71,64.748,50.865,65.778,50.009"></path><path d="M68.508,52.412c-1.89,1.589-3.946,3.169-6.186,4.704c-0.211,2.707-0.549,5.28-0.98,7.709c2.028,0.624,3.96,1.101,5.762,1.41  c1.343-1.812,3.846-2.386,5.847-1.23c0.622,0.356,1.107,0.851,1.479,1.406c1.171-0.268,1.832-0.696,2.071-1.111  C77.522,63.532,74.893,58.383,68.508,52.412"></path><path d="M54.5,42.206c-1.494-0.861-2.997-1.652-4.5-2.407c-1.505,0.754-3.006,1.545-4.5,2.407c-1.499,0.865-2.939,1.768-4.34,2.688  C41.066,46.537,41,48.227,41,50c0,1.733,0.063,3.428,0.156,5.101c1.377,0.907,2.808,1.807,4.344,2.693  c1.494,0.865,2.995,1.652,4.5,2.407c1.503-0.754,3.006-1.542,4.5-2.407c1.498-0.863,2.938-1.765,4.338-2.684  C58.934,53.466,59,51.775,59,50c0-1.729-0.062-3.426-0.158-5.101C57.467,43.995,56.036,43.094,54.5,42.206"></path><path d="M54.096,62.117c1.279,0.559,2.544,1.069,3.79,1.533c0.222-1.287,0.422-2.626,0.58-4.043  c-0.714,0.441-1.428,0.881-2.166,1.306S54.83,61.718,54.096,62.117"></path></svg>