<svg xmlns="http://www.w3.org/2000/svg" xmlns:xlink="http://www.w3.org/1999/xlink" viewBox="0 0 75 75" version="1.1" x="0px" y="0px"><g><path style="" d="M 29.269531 12.679688 C 42 12.679688 52.757812 19.769531 52.757812 28.164062 C 52.757812 36.5625 42 43.652344 29.269531 43.652344 C 24.828125 43.652344 22.269531 43.425781 18.875 42.085938 L 17.5625 41.570312 L 16.308594 42.210938 L 11.398438 44.710938 L 12.414062 41.472656 L 13.058594 39.414062 L 11.359375 38.078125 C 7.765625 35.261719 5.785156 31.742188 5.785156 28.164062 C 5.785156 19.769531 16.539062 12.679688 29.269531 12.679688 M 29.269531 9.554688 C 14.574219 9.554688 2.65625 17.886719 2.65625 28.164062 C 2.65625 32.921875 5.230469 37.246094 9.429688 40.539062 L 6.191406 50.867188 L 17.726562 44.992188 C 21.582031 46.515625 24.53125 46.777344 29.269531 46.777344 C 43.96875 46.777344 55.882812 38.445312 55.882812 28.164062 C 55.882812 17.882812 43.96875 9.554688 29.269531 9.554688 Z M 29.269531 9.554688 " stroke="none" fill-rule="nonzero" fill="rgb(0%,0%,0%)" fill-opacity="1"></path><path style="" d="M 61.828125 28.53125 C 67.257812 31.230469 70.648438 35.492188 70.648438 40 C 70.648438 43.304688 68.8125 46.570312 65.472656 49.183594 L 63.773438 50.515625 L 64.417969 52.578125 L 65.285156 55.339844 L 60.671875 53.070312 L 59.433594 52.457031 L 58.148438 52.964844 C 55.058594 54.183594 53.085938 54.386719 48.734375 54.386719 C 44.085938 54.386719 39.648438 53.402344 35.984375 51.648438 C 50.644531 49.785156 61.835938 40.273438 61.835938 28.859375 C 61.832031 28.75 61.832031 28.640625 61.828125 28.53125 M 57.71875 23.667969 C 58.34375 25.324219 58.707031 27.058594 58.707031 28.859375 C 58.707031 39.886719 46.148438 48.855469 30.703125 48.855469 C 29.460938 48.855469 28.21875 48.78125 26.988281 48.667969 C 31.304688 53.945312 39.414062 57.511719 48.734375 57.511719 C 53.191406 57.511719 55.664062 57.300781 59.292969 55.867188 L 70.449219 61.367188 L 67.402344 51.640625 C 71.351562 48.546875 73.777344 44.472656 73.777344 40 C 73.773438 32.546875 67.101562 26.195312 57.71875 23.667969 Z M 57.71875 23.667969 " stroke="none" fill-rule="nonzero" fill="rgb(0%,0%,0%)" fill-opacity="1"></path></g></svg>