<svg xmlns="http://www.w3.org/2000/svg" xmlns:xlink="http://www.w3.org/1999/xlink" version="1.1" x="0px" y="0px" viewBox="0 0 100 100" style="enable-background:new 0 0 100 100;" xml:space="preserve"><style type="text/css">
	.st0{fill:#231F20;}
</style><g><path class="st0" d="M-1599.4,1172.4c-4,0-7.3,3.3-7.3,7.3s3.3,7.3,7.3,7.3s7.3-3.3,7.3-7.3   C-1592.2,1175.7-1595.4,1172.4-1599.4,1172.4z M-1599.6,1182.3c-1.5,0-2.8-1.2-2.8-2.8c0-1.5,1.2-2.8,2.8-2.8   c1.5,0,2.8,1.2,2.8,2.8C-1596.8,1181-1598,1182.3-1599.6,1182.3z"></path><path class="st0" d="M-1557.4,1172.4c-4,0-7.3,3.3-7.3,7.3s3.3,7.3,7.3,7.3s7.3-3.3,7.3-7.3   S-1553.3,1172.4-1557.4,1172.4z M-1557.3,1182.3c-1.5,0-2.8-1.2-2.8-2.8s1.2-2.8,2.8-2.8c1.5,0,2.8,1.2,2.8,2.8   S-1555.7,1182.3-1557.3,1182.3z"></path><path class="st0" d="M-1555.7,1157.2c-0.5-9.1-11.6-16.3-25.3-16.3s-23.3,6.7-26.6,16.1c-5.5,2.2-7.6,5.3-7.6,8.6   c0,0,0,0.1,0,0.2h-4c0,0-0.7,0.1-1-0.3s-0.3-1-0.3-1v-8.5h5.1c0.6,0,1.1-0.5,1.1-1.1v-7c0-0.6-0.5-1.1-1.1-1.1h-1.4v-3.7h-2.6v3.7   h-5.3v-3.7h-2.6v3.7h-1.5c-0.6,0-1.1,0.5-1.1,1.1v7c0,0.6,0.5,1.1,1.1,1.1h5.1v9.8v1.9l1.2,1.3h1.9h5.3c0,3.3,0,7.8,0,7.8   c0,0.9,0.8,1.7,1.7,1.7h5.7c1.1-4.1,3.7-7.1,8.2-7.1s7.7,3.1,8.8,7.2l24.8,0.1c1.1-4.2,4.2-7.3,8.7-7.3c4.6,0,7.7,3.2,8.7,7.4h4.3   c0.9,0,1.7-0.8,1.7-1.7c0,0,0-10.9,0-11.1C-1542.8,1162.6-1550.3,1159.4-1555.7,1157.2z M-1561.5,1156.8h-39.9   c0,0,5.7-12,19.5-11.7c11.5,0.3,16.7,4.3,19,8.2C-1561.4,1155.9-1561.5,1156.8-1561.5,1156.8z"></path></g><circle class="st0" cx="-1623" cy="1166.8" r="1.3"></circle><path class="st0" d="M-999,771.1h-1.6v-5.7h-2.7v5.7h-5v-5.7h-2.7v5.7h-1.5c-0.7,0-1.2,0.5-1.2,1.2v7.5  c0,0.7,0.5,1.2,1.2,1.2h4.6v15.2h-6.5l-0.6-8c-0.1-1.3-1.2-1.9-2.6-2.4l-4.1-1.1l-2.4-17.3c-0.2-1.3-1.4-2.4-2.7-2.4h-42.1  c-1.3,0-2.5,1.1-2.7,2.4l-2.4,17.3l-3.7,1.1c-1.1,0.4-2.4,1.1-2.5,2.4l-1.3,18.3c-0.1,1.3,0.9,2.4,2.2,2.4h6v7.1  c0,1.2,1,2.2,2.2,2.2h5.7c1.2,0,2.2-1,2.2-2.2v-7.1h31.6v7c0,1.2,1,2.2,2.2,2.2h5.9c1.2,0,2.2-1,2.2-2.2v-7h5.6  c1.3,0,2.3-1.1,2.2-2.4l-0.5-6.2h10.5v-3.7v-0.4V781h4.7c0.7,0,1.2-0.5,1.2-1.2v-7.5C-997.8,771.7-998.3,771.1-999,771.1z   M-1066.5,797.3c0,0.7-0.5,1.2-1.2,1.2h-5.9c-0.7,0-1.2-0.5-1.2-1.2V791c0-0.7,0.5-1.2,1.2-1.2h5.9c0.7,0,1.2,0.5,1.2,1.2V797.3z   M-1067,781.1c-0.7,0-1.1-0.5-1-1.2l1.4-9.6c0.1-0.6,0.7-1.2,1.4-1.2h34.8c0.7,0,1.3,0.5,1.4,1.2l1.4,9.6c0.1,0.6-0.4,1.2-1,1.2  H-1067z M-1020.3,797.3c0,0.7-0.5,1.2-1.2,1.2h-5.9c-0.7,0-1.2-0.5-1.2-1.2V791c0-0.7,0.5-1.2,1.2-1.2h5.9c0.7,0,1.2,0.5,1.2,1.2  V797.3z"></path><path class="st0" d="M14.4,51.1c0,0,3.5-3.3,7.8-2.1c4.4,1.2,8,4.2,10.7,7.2c2.7,3,3.9,6.9,3.9,6.9s13.9-18.8,25-30.2  c10.3-10.6,20.5-17.3,21.7-18.2c1.2-0.9,2.9-2,3.8-0.9c0.9,1.1,1.7,2.1,0.8,3.2S72.9,34.5,65.5,44.3c-8.3,11-13.4,21.5-21.5,33.5  C42,80.9,37,87.9,33,87.4c-1.1-0.1-4.3-10.3-5.3-12.3c-2.2-4.4-5.5-10.8-11.6-17C13.3,55.5,11.1,54.1,14.4,51.1z"></path><path class="st0" d="M-460.5,439.3l-5.8-3.4l5-1.8l-0.6-1.7l-6.5,2.3l-2.5-1.5l10.6-3.7l-0.6-1.7L-473,432l-2.4-1.4  l5.4-1.9l-0.6-1.7l-5.4,1.9c-0.2-0.7-0.6-1.3-1.3-1.7c-1.1-0.6-2.4-0.4-3.3,0.4l-0.6-0.3l2-3.4l-1.4-0.8l-2,3.4l-1.9-1.1l-0.8-1.5  l0.3-6.1l1.1-1.8l1.7-1l2.1,3.7l1.4-0.8l-2.1-3.7l0.7-0.4c0.9,0.7,2.1,0.8,3.1,0.2c0.6-0.4,1.1-0.9,1.3-1.6l5.5,1.9l0.6-1.7  l-5.3-1.9l2.4-1.4l12,4.2l0.6-1.7l-10.5-3.7l2.5-1.5l6.4,2.2l0.6-1.7l-5-1.7l5.7-3.3l1.9,0.5l2-3.7l-4.2-0.1l-0.5,1.7l-5.8,3.4  l1-5.3l-1.8-0.3l-1.3,6.8l-2.5,1.5l2.1-11l-1.8-0.3l-2.4,12.6l-2.4,1.4l1.1-5.6l-1.8-0.3l-1.1,5.6c-0.7-0.2-1.5-0.1-2.1,0.3  c-1.1,0.6-1.6,1.9-1.3,3.1l-0.6,0.3l-2-3.4l-1.4,0.8l2,3.4l-1.9,1.1h-1.8l-5.5-3.2l-1-1.9v-1.9h4.2V406h-4.2v-0.8  c1-0.4,1.8-1.4,1.8-2.6c0-0.7-0.3-1.4-0.7-1.9l4.4-3.8l-1.2-1.4l-4.3,3.7v-2.8l9.6-8.3l-1.2-1.4l-8.4,7.3v-2.9l5.1-4.4l-1.2-1.4  l-4,3.4v-6.6l1.4-1.4l-2.2-3.6l-2.2,3.6l1.3,1.3v6.7l-4.1-3.5l-1.2,1.4l5.2,4.5v2.9l-8.5-7.3l-1.2,1.4l9.7,8.3v2.8l-4.4-3.8  l-1.2,1.4l4.3,3.7c-0.5,0.5-0.8,1.2-0.8,2c0,1.3,0.8,2.3,2,2.7v0.7h-3.9v1.6h3.9v2.2l-0.9,1.6l-5.4,2.9h-2.1l-1.7-1l2.1-3.7  l-1.4-0.8l-2.1,3.7l-0.7-0.4c0.2-1.1-0.3-2.2-1.4-2.8c-0.6-0.4-1.4-0.5-2-0.3l-1.1-5.8l-1.8,0.3l1.1,5.6l-2.4-1.4l-2.4-12.5  l-1.8,0.3l2.1,11l-2.5-1.5l-1.3-6.7l-1.8,0.3l1,5.2l-5.7-3.3l-0.5-1.9l-4.2,0.1l2,3.7l1.7-0.5l5.8,3.4l-5,1.8l0.6,1.7l6.5-2.3  l2.5,1.5l-10.6,3.7l0.6,1.7l12.1-4.2l2.4,1.4l-5.4,1.9l0.6,1.7l5.4-1.9c0.2,0.7,0.6,1.3,1.3,1.7c1.1,0.6,2.4,0.4,3.3-0.4l0.6,0.3  l-2,3.4l1.4,0.8l2-3.4l1.9,1.1l0.9,1.6l-0.1,6.1l-1.1,1.8l-1.7,1l-2.1-3.7l-1.4,0.8l2.1,3.7l-0.7,0.4c-0.9-0.7-2.1-0.8-3.1-0.2  c-0.6,0.4-1.1,0.9-1.3,1.6l-5.5-1.9l-0.6,1.7l5.3,1.9l-2.4,1.4l-12-4.2l-0.6,1.7l10.5,3.7l-2.5,1.5l-6.4-2.2l-0.6,1.7l5,1.7  l-5.7,3.3l-1.9-0.5l-2,3.7l4.2,0.1l0.5-1.7l5.8-3.4l-1,5.3l1.8,0.3l1.3-6.8l2.5-1.5l-2.1,11l1.8,0.3l2.4-12.6l2.4-1.4l-1.1,5.6  l1.8,0.3l1.1-5.6c0.7,0.2,1.5,0.1,2.1-0.3c1.1-0.6,1.6-1.9,1.3-3.1l0.6-0.3l2,3.4l1.4-0.8l-2-3.4l1.9-1.1h1.8l5.2,3.2l1,1.9v1.9  h-4.2v1.6h4.2v0.8c-1,0.4-1.8,1.4-1.8,2.6c0,0.7,0.3,1.4,0.7,1.9l-4.4,3.8l1.2,1.4l4.3-3.7v2.8l-9.6,8.3l1.2,1.4l8.4-7.3v2.9  l-5.1,4.4l1.2,1.4l4-3.4v6.6l-1.4,1.4l2.2,3.6l2.2-3.6l-1.3-1.3v-6.7l4.1,3.5l1.2-1.4l-5.2-4.5v-2.9l8.5,7.3l1.2-1.4l-9.7-8.3V442  l4.4,3.8l1.2-1.4l-4.3-3.7c0.5-0.5,0.8-1.2,0.8-2c0-1.3-0.8-2.3-2-2.7v-0.7h3.9v-1.6h-3.9v-2.2l0.9-1.6l5.4-2.9h2.1l1.7,1l-2.1,3.7  l1.4,0.8l2.1-3.7l0.7,0.4c-0.2,1.1,0.3,2.2,1.4,2.8c0.6,0.4,1.4,0.5,2,0.3l1.1,5.8l1.8-0.3l-1.1-5.6l2.4,1.4l2.4,12.5l1.8-0.3  l-2.1-11l2.5,1.5l1.3,6.7l1.8-0.3l-1-5.2l5.7,3.3l0.5,1.9l4.2-0.1l-2-3.7L-460.5,439.3z M-492.2,415.1l2.1-1.1l0.2,2.4l-1,1.6  l-2.4,1.4v-2.5L-492.2,415.1z M-495.9,415.1l0.9,1.6v2.4l-2-1.1l-1.1-1.8l0.2-2.2L-495.9,415.1z M-501.7,420.4l1.8-1.1h1.8l2.1,1.2  l-2,1.1h-2.1L-501.7,420.4z M-496.2,426.3l-2,0.8V425l1-1.6l2.1-1.2v2.3L-496.2,426.3z M-492.6,426.3l-0.9-1.6v-2.4l2,1.1l1.1,1.8  l-0.3,2.1L-492.6,426.3z M-488.5,422.1h-1.8l-1.9-1.1l2.1-1.2h2.1l1.5,1.2L-488.5,422.1z"></path></svg>