<svg xmlns="http://www.w3.org/2000/svg" xmlns:xlink="http://www.w3.org/1999/xlink" version="1.1" x="0px" y="0px" viewBox="0 0 100 100" style="enable-background:new 0 0 100 100;" xml:space="preserve"><style type="text/css">
	.st0{fill:none;stroke:#000000;stroke-width:4;stroke-linecap:round;stroke-linejoin:round;stroke-miterlimit:10;}
	.st1{fill:none;}
	.st2{fill:#231F20;}
</style><path d="M50,7.5C26.5,7.5,7.5,26.5,7.5,50s19,42.5,42.5,42.5s42.5-19,42.5-42.5S73.5,7.5,50,7.5z M50,81.9  c-17.6,0-31.9-14.3-31.9-31.9S32.4,18.1,50,18.1S81.9,32.4,81.9,50S67.6,81.9,50,81.9z M44.7,28.8c0,2.9,2.4,5.3,5.3,5.3  s5.3-2.4,5.3-5.3s-2.4-5.3-5.3-5.3S44.7,25.8,44.7,28.8z M60.6,34.1c0,2.9,2.4,5.3,5.3,5.3s5.3-2.4,5.3-5.3s-2.4-5.3-5.3-5.3  S60.6,31.1,60.6,34.1z M28.8,34.1c0,2.9,2.4,5.3,5.3,5.3s5.3-2.4,5.3-5.3s-2.4-5.3-5.3-5.3S28.8,31.1,28.8,34.1z M44.7,65.9v5.3  h10.6v-5.3L50,39.4L44.7,65.9z"></path></svg>