<?xml version="1.0" encoding="utf-8"?><!DOCTYPE svg PUBLIC "-//W3C//DTD SVG 1.1//EN" "http://www.w3.org/Graphics/SVG/1.1/DTD/svg11.dtd"><svg version="1.1" xmlns="http://www.w3.org/2000/svg" xmlns:xlink="http://www.w3.org/1999/xlink" x="0px" y="0px" viewBox="0 0 100 93.579" enable-background="new 0 0 100 93.579" xml:space="preserve"><path fill="#010101" d="M89.413,36.746H60.73V9.908c0,0,0.264-10.01-10.295-9.907C39.876,0.104,39.267,9.908,39.267,9.908v26.838
	H10.586c0,0-10.538,0.046-10.586,9.907c-0.05,9.862,10.586,10.178,10.586,10.178h28.681v26.84c0,0,0.049,9.861,10.587,9.907
	c10.539,0.046,10.876-9.907,10.876-9.907v-26.84h28.683c0,0,10.697,0.245,10.586-9.636C99.888,37.315,89.413,36.746,89.413,36.746z"></path></svg>