<svg xmlns="http://www.w3.org/2000/svg" xmlns:xlink="http://www.w3.org/1999/xlink" version="1.1" x="0px" y="0px" viewBox="0 0 50 30" enable-background="new 0 0 50 30" xml:space="preserve"><g><path d="M8.9,9C5.7,9,3,11.7,3,14.9c0,3.3,2.7,5.9,5.9,5.9c3.3,0,5.9-2.7,5.9-5.9S12.2,9,8.9,9z"></path><path d="M41.1,9c-3.3,0-5.9,2.7-5.9,5.9c0,3.3,2.7,5.9,5.9,5.9s5.9-2.6,5.9-5.9C47,11.7,44.3,9,41.1,9z"></path><path d="M25.3,9c-3.3,0-5.9,2.7-5.9,5.9c0,3.3,2.7,5.9,5.9,5.9c3.3,0,5.9-2.7,5.9-5.9C31.2,11.7,28.6,9,25.3,9z"></path></g></svg>