<svg xmlns:dc="http://purl.org/dc/elements/1.1/" xmlns:cc="http://creativecommons.org/ns#" xmlns:rdf="http://www.w3.org/1999/02/22-rdf-syntax-ns#" xmlns:svg="http://www.w3.org/2000/svg" xmlns="http://www.w3.org/2000/svg" version="1.1" viewBox="0 0 100 100" xml:space="preserve" x="0px" y="0px"><path d="m 55.5625,10.5625 c -18.350324,0 -33.816005,12.641108 -38.1875,29.65625 l -12.375,0 17.25,23.96875 17.25,-23.96875 -13.03125,0 C 30.535015,28.040341 41.983154,19.3125 55.5625,19.3125 72.56495,19.3125 86.25,32.997571 86.25,50 c 0,17.002428 -13.68505,30.6875 -30.6875,30.6875 -9.147143,0 -17.323876,-3.97259 -22.9375,-10.28125 l -5.1875,7.1875 C 34.601685,84.891484 44.564615,89.4375 55.5625,89.4375 77.29163,89.4375 95,71.729064 95,50 95,28.270935 77.29163,10.5625 55.5625,10.5625 z" style="text-indent:0;text-transform:none;direction:ltr;block-progression:tb;baseline-shift:baseline;color:#000000;enable-background:accumulate;" fill="#000000" fill-opacity="1" fill-rule="evenodd" stroke="none" marker="none" visibility="visible" display="inline" overflow="visible"></path></svg>