<svg xmlns="http://www.w3.org/2000/svg" xmlns:xlink="http://www.w3.org/1999/xlink" viewBox="0 0 100 100" version="1.1" xml:space="preserve" style="" x="0px" y="0px" fill-rule="evenodd" clip-rule="evenodd" stroke-linejoin="round" stroke-miterlimit="1.41421"><g transform="matrix(1.78042,0,0,1.78042,-56.9645,-27.2855)"><path d="M63.815,18.216C61.337,17.849 58.819,17.849 56.341,18.216L55.171,23.82C53.245,24.302 51.4,25.067 49.696,26.088L44.907,22.952C42.895,24.445 41.114,26.225 39.622,28.237L42.757,33.027C41.736,34.73 40.972,36.575 40.489,38.502L34.886,39.672C34.518,42.149 34.518,44.668 34.886,47.145L40.489,48.315C40.972,50.242 41.736,52.087 42.757,53.79L39.622,58.58C41.114,60.592 42.895,62.372 44.907,63.865L49.696,60.729C51.4,61.75 53.245,62.515 55.171,62.997L56.341,68.601C58.819,68.968 61.337,68.968 63.815,68.601L64.985,62.997C66.911,62.515 68.756,61.75 70.46,60.729L75.249,63.865C77.261,62.372 79.042,60.592 80.534,58.58L77.399,53.79C78.42,52.087 79.184,50.242 79.667,48.315L85.27,47.145C85.638,44.668 85.638,42.149 85.27,39.672L79.667,38.502C79.184,36.575 78.42,34.73 77.399,33.027L80.534,28.237C79.042,26.225 77.261,24.445 75.249,22.952L70.46,26.088C68.756,25.067 66.911,24.302 64.985,23.82L63.815,18.216ZM60.078,32.432C66.136,32.432 71.054,37.351 71.054,43.409C71.054,49.466 66.136,54.385 60.078,54.385C54.02,54.385 49.102,49.466 49.102,43.409C49.102,37.351 54.02,32.432 60.078,32.432Z" style="" fill="black"></path></g><g transform="matrix(1.78042,0,0,1.78042,-56.9645,-27.2855)"><path d="M45.191,22.061C45.309,22.107 45.309,22.107 45.42,22.169L49.726,24.988C49.866,24.91 50.006,24.833 50.147,24.758C50.29,24.682 50.434,24.607 50.579,24.534C51.158,24.244 51.749,23.978 52.352,23.742C52.956,23.504 53.57,23.297 54.192,23.115L54.286,23.088L54.373,23.063L55.425,18.025C55.455,17.917 55.458,17.887 55.51,17.787C55.607,17.598 55.769,17.446 55.963,17.36C56.066,17.314 56.096,17.314 56.206,17.29C56.366,17.267 56.526,17.244 56.686,17.223C57.892,17.07 59.106,16.994 60.321,17.006C61.496,17.016 62.668,17.108 63.832,17.273L63.95,17.29C64.06,17.314 64.09,17.314 64.193,17.36C64.388,17.446 64.549,17.598 64.647,17.787C64.699,17.887 64.701,17.917 64.731,18.025L65.783,23.063C65.937,23.107 66.091,23.152 66.244,23.198C66.399,23.246 66.553,23.295 66.707,23.345C67.322,23.55 67.928,23.78 68.522,24.039C69.116,24.298 69.697,24.585 70.266,24.897L70.351,24.944L70.43,24.988L74.737,22.169C74.835,22.114 74.857,22.095 74.965,22.061C75.167,21.996 75.389,22.003 75.587,22.079C75.693,22.12 75.714,22.141 75.809,22.202C75.938,22.298 76.067,22.396 76.195,22.494C77.156,23.238 78.068,24.043 78.919,24.911C79.743,25.749 80.507,26.643 81.213,27.582L81.285,27.678C81.346,27.772 81.366,27.794 81.407,27.899C81.484,28.097 81.491,28.319 81.426,28.522C81.392,28.629 81.372,28.652 81.317,28.75L78.498,33.056C78.577,33.196 78.653,33.336 78.729,33.477C78.805,33.621 78.879,33.765 78.952,33.909C79.242,34.489 79.508,35.08 79.745,35.683C79.982,36.286 80.19,36.9 80.372,37.522L80.399,37.616L80.423,37.703L85.462,38.755C85.57,38.786 85.6,38.788 85.7,38.84C85.889,38.937 86.041,39.099 86.127,39.293C86.172,39.397 86.173,39.427 86.197,39.536C86.22,39.696 86.242,39.856 86.263,40.016C86.412,41.182 86.487,42.355 86.482,43.53C86.476,44.746 86.384,45.959 86.214,47.162L86.197,47.281C86.173,47.39 86.172,47.42 86.127,47.524C86.041,47.718 85.889,47.88 85.7,47.977C85.6,48.029 85.57,48.031 85.462,48.062L80.423,49.114C80.38,49.268 80.335,49.421 80.289,49.574C80.241,49.729 80.192,49.884 80.141,50.038C79.937,50.652 79.707,51.258 79.448,51.852C79.189,52.447 78.901,53.028 78.59,53.596L78.543,53.681L78.498,53.761L81.317,58.067C81.372,58.165 81.392,58.188 81.426,58.296C81.491,58.498 81.484,58.72 81.407,58.918C81.366,59.023 81.346,59.045 81.285,59.139C81.188,59.269 81.091,59.397 80.992,59.526C80.273,60.455 79.497,61.338 78.663,62.165C77.799,63.02 76.876,63.813 75.905,64.544L75.809,64.615C75.714,64.676 75.693,64.697 75.587,64.738C75.389,64.814 75.167,64.821 74.965,64.756C74.857,64.722 74.835,64.703 74.737,64.648L70.43,61.829C70.291,61.907 70.15,61.984 70.009,62.059C69.866,62.135 69.722,62.21 69.577,62.283C68.998,62.573 68.407,62.839 67.804,63.076C67.2,63.313 66.586,63.52 65.964,63.702L65.871,63.729L65.783,63.754L64.731,68.792C64.701,68.9 64.699,68.93 64.647,69.031C64.549,69.219 64.388,69.371 64.193,69.457C64.09,69.503 64.06,69.503 63.95,69.527C63.79,69.55 63.63,69.573 63.47,69.594C62.305,69.742 61.132,69.818 59.957,69.812C58.741,69.807 57.528,69.714 56.324,69.544L56.206,69.527C56.096,69.503 56.066,69.503 55.963,69.457C55.769,69.371 55.607,69.219 55.51,69.031C55.458,68.93 55.455,68.9 55.425,68.792L54.373,63.754C54.219,63.71 54.066,63.665 53.912,63.619C53.757,63.571 53.603,63.522 53.449,63.472C52.834,63.267 52.228,63.037 51.634,62.778C51.04,62.519 50.459,62.232 49.89,61.92L49.805,61.873L49.726,61.829L45.42,64.648C45.322,64.703 45.299,64.722 45.191,64.756C44.989,64.821 44.767,64.814 44.569,64.738C44.463,64.697 44.442,64.676 44.348,64.615C44.218,64.519 44.089,64.421 43.961,64.323C43.032,63.604 42.149,62.828 41.322,61.993C40.466,61.129 39.674,60.206 38.943,59.235L38.871,59.139C38.811,59.045 38.79,59.023 38.749,58.918C38.672,58.72 38.666,58.498 38.73,58.296C38.765,58.188 38.784,58.165 38.839,58.067L41.658,53.761C41.58,53.621 41.503,53.481 41.427,53.34C41.352,53.196 41.277,53.052 41.204,52.908C40.914,52.328 40.648,51.737 40.411,51.134C40.174,50.531 39.966,49.917 39.784,49.295L39.758,49.201L39.733,49.114L34.695,48.062C34.586,48.031 34.557,48.029 34.456,47.977C34.268,47.88 34.115,47.718 34.03,47.524C33.984,47.42 33.983,47.39 33.96,47.281C33.936,47.121 33.914,46.961 33.893,46.801C33.74,45.595 33.664,44.381 33.675,43.166C33.686,41.991 33.778,40.818 33.942,39.655L33.96,39.536C33.983,39.427 33.984,39.397 34.03,39.293C34.115,39.099 34.268,38.937 34.456,38.84C34.557,38.788 34.586,38.786 34.695,38.755L39.733,37.703C39.776,37.549 39.821,37.396 39.868,37.243C39.915,37.088 39.964,36.933 40.015,36.779C40.22,36.165 40.45,35.559 40.709,34.965C40.968,34.37 41.255,33.789 41.566,33.221L41.613,33.136L41.658,33.056L38.839,28.75C38.784,28.652 38.765,28.629 38.73,28.521C38.666,28.319 38.672,28.097 38.749,27.899C38.79,27.794 38.811,27.772 38.871,27.678C38.968,27.548 39.065,27.42 39.164,27.291C39.908,26.33 40.713,25.419 41.58,24.567C42.419,23.744 43.313,22.98 44.252,22.273L44.348,22.202C44.442,22.141 44.463,22.12 44.569,22.079C44.687,22.034 44.815,22.012 44.942,22.017C44.984,22.019 45.026,22.026 45.068,22.03C45.109,22.04 45.15,22.05 45.191,22.061ZM59.965,18.877C59.476,18.88 58.988,18.896 58.5,18.928C58.049,18.957 57.599,18.999 57.151,19.052L57.122,19.055L56.088,24.011L56.052,24.137C56.006,24.243 55.999,24.273 55.931,24.367C55.829,24.509 55.687,24.621 55.525,24.687C55.485,24.703 55.442,24.714 55.401,24.727C55.257,24.764 55.113,24.802 54.97,24.841C54.116,25.078 53.278,25.369 52.464,25.72C51.676,26.059 50.913,26.452 50.176,26.892L50.059,26.951C49.95,26.988 49.923,27.003 49.807,27.017C49.634,27.038 49.456,27.009 49.298,26.935C49.258,26.916 49.222,26.892 49.184,26.871L44.948,24.098C43.815,24.984 42.761,25.973 41.801,27.045C41.45,27.438 41.112,27.842 40.786,28.256L40.768,28.278L43.54,32.514L43.604,32.628C43.62,32.669 43.639,32.708 43.651,32.75C43.703,32.917 43.707,33.097 43.662,33.266C43.632,33.379 43.613,33.403 43.561,33.506C43.485,33.634 43.41,33.762 43.336,33.891C42.9,34.663 42.514,35.461 42.186,36.285C41.869,37.082 41.607,37.9 41.397,38.731L41.356,38.855C41.305,38.959 41.297,38.989 41.225,39.081C41.117,39.218 40.971,39.323 40.806,39.383C40.765,39.397 40.723,39.406 40.681,39.418L35.725,40.453C35.55,41.881 35.504,43.325 35.584,44.762C35.613,45.288 35.66,45.813 35.722,46.336L35.725,46.364L40.681,47.399L40.806,47.434C40.846,47.452 40.887,47.467 40.926,47.487C41.08,47.569 41.211,47.693 41.298,47.844C41.357,47.945 41.361,47.976 41.397,48.086C41.433,48.23 41.471,48.374 41.51,48.517C41.747,49.371 42.039,50.209 42.39,51.023C42.729,51.811 43.122,52.574 43.561,53.311L43.62,53.427C43.657,53.537 43.673,53.564 43.687,53.679C43.707,53.853 43.679,54.031 43.604,54.189C43.586,54.228 43.562,54.265 43.54,54.303L40.768,58.539C41.654,59.672 42.643,60.726 43.715,61.685C44.107,62.037 44.512,62.375 44.925,62.701L44.948,62.719L49.184,59.946L49.298,59.882C49.338,59.867 49.378,59.848 49.419,59.835C49.586,59.784 49.767,59.78 49.936,59.824C50.048,59.854 50.072,59.873 50.176,59.925C50.303,60.001 50.432,60.076 50.561,60.15C51.332,60.586 52.131,60.972 52.955,61.3C53.752,61.618 54.569,61.879 55.401,62.09L55.525,62.13C55.564,62.15 55.605,62.166 55.642,62.188C55.793,62.276 55.918,62.406 56,62.561C56.054,62.664 56.056,62.695 56.088,62.806L57.122,67.762C58.55,67.936 59.995,67.982 61.431,67.903C61.957,67.874 62.482,67.827 63.005,67.765L63.034,67.762L64.068,62.806L64.104,62.68C64.122,62.64 64.136,62.599 64.157,62.561C64.238,62.406 64.363,62.276 64.514,62.188C64.615,62.13 64.645,62.126 64.755,62.09C64.899,62.053 65.043,62.016 65.187,61.976C66.041,61.739 66.878,61.448 67.692,61.097C68.481,60.758 69.244,60.365 69.98,59.925L70.097,59.866C70.207,59.829 70.233,59.814 70.349,59.8C70.522,59.779 70.7,59.808 70.859,59.882C70.898,59.901 70.935,59.925 70.973,59.946L75.208,62.719C76.342,61.833 77.396,60.844 78.355,59.772C78.707,59.379 79.044,58.975 79.371,58.561L79.388,58.539L76.616,54.303L76.552,54.189C76.51,54.081 76.494,54.055 76.475,53.94C76.447,53.768 76.468,53.588 76.536,53.427C76.553,53.387 76.575,53.35 76.595,53.311C76.671,53.183 76.746,53.055 76.82,52.926C77.256,52.154 77.642,51.356 77.97,50.532C78.287,49.735 78.549,48.917 78.759,48.086L78.8,47.962C78.819,47.923 78.836,47.882 78.858,47.844C78.946,47.693 79.076,47.569 79.23,47.487C79.333,47.433 79.364,47.43 79.476,47.399L84.431,46.364C84.606,44.936 84.652,43.492 84.573,42.056C84.544,41.529 84.496,41.005 84.435,40.481L84.431,40.453L79.476,39.418L79.35,39.383C79.31,39.365 79.269,39.35 79.23,39.33C79.076,39.248 78.946,39.124 78.858,38.973C78.799,38.872 78.795,38.841 78.759,38.731C78.723,38.587 78.685,38.444 78.646,38.3C78.409,37.446 78.117,36.608 77.767,35.794C77.427,35.006 77.034,34.243 76.595,33.506L76.536,33.39C76.499,33.28 76.483,33.253 76.469,33.138C76.449,32.964 76.478,32.786 76.552,32.628C76.571,32.589 76.595,32.552 76.616,32.514L79.388,28.278C78.502,27.145 77.513,26.091 76.442,25.132C76.049,24.78 75.645,24.442 75.231,24.116L75.208,24.098L70.973,26.871L70.859,26.935C70.751,26.976 70.725,26.993 70.61,27.012C70.437,27.04 70.258,27.018 70.097,26.951C70.057,26.934 70.019,26.911 69.98,26.892C69.853,26.816 69.724,26.741 69.595,26.667C68.824,26.231 68.025,25.845 67.202,25.517C66.405,25.199 65.587,24.938 64.755,24.727L64.631,24.687C64.592,24.667 64.552,24.651 64.514,24.629C64.363,24.541 64.238,24.411 64.157,24.256C64.102,24.153 64.1,24.122 64.068,24.011L63.034,19.055C62.128,18.944 61.216,18.888 60.304,18.878C60.191,18.877 60.078,18.877 59.965,18.877ZM60.155,31.497C60.711,31.502 61.266,31.542 61.816,31.623C62.955,31.789 64.068,32.123 65.111,32.61C66.584,33.298 67.91,34.291 68.99,35.507C69.752,36.366 70.39,37.335 70.876,38.376C71.29,39.261 71.593,40.196 71.777,41.155C72.117,42.93 72.05,44.782 71.577,46.526C71.324,47.462 70.955,48.366 70.482,49.212C69.876,50.295 69.1,51.282 68.191,52.128C67.139,53.107 65.91,53.895 64.58,54.439C63.178,55.013 61.669,55.311 60.155,55.32C58.638,55.33 57.123,55.05 55.712,54.493C54.418,53.983 53.217,53.243 52.176,52.32C51.249,51.497 50.45,50.529 49.818,49.461C49.326,48.629 48.935,47.736 48.659,46.809C48.13,45.03 48.025,43.129 48.352,41.302C48.524,40.339 48.816,39.398 49.219,38.507C49.693,37.46 50.32,36.483 51.072,35.614C52.137,34.386 53.451,33.378 54.915,32.672C55.95,32.173 57.057,31.826 58.192,31.645C58.74,31.558 59.293,31.511 59.848,31.499C59.95,31.497 60.053,31.496 60.155,31.497ZM60.013,33.369C59.544,33.373 59.076,33.407 58.611,33.475C57.653,33.616 56.716,33.896 55.838,34.307C54.596,34.887 53.477,35.724 52.567,36.749C51.924,37.474 51.386,38.291 50.976,39.168C50.637,39.894 50.386,40.661 50.23,41.447C49.925,42.982 49.984,44.588 50.402,46.096C50.626,46.902 50.952,47.679 51.369,48.403C51.891,49.311 52.555,50.135 53.329,50.839C54.196,51.627 55.201,52.263 56.285,52.706C57.487,53.198 58.78,53.448 60.078,53.448C61.376,53.448 62.67,53.198 63.871,52.706C64.956,52.263 65.96,51.627 66.827,50.839C67.601,50.135 68.266,49.311 68.788,48.403C69.205,47.679 69.53,46.902 69.754,46.096C70.172,44.588 70.231,42.982 69.926,41.447C69.77,40.661 69.519,39.894 69.18,39.168C68.77,38.291 68.232,37.474 67.589,36.749C66.679,35.724 65.561,34.887 64.318,34.307C63.441,33.896 62.503,33.616 61.545,33.475C61.08,33.407 60.612,33.373 60.143,33.369C60.1,33.369 60.056,33.369 60.013,33.369Z" style="" fill="black" fill-rule="nonzero"></path></g></svg>