<svg xmlns="http://www.w3.org/2000/svg" xmlns:xlink="http://www.w3.org/1999/xlink" version="1.1" x="0px" y="0px" viewBox="0 0 100 100" style="enable-background:new 0 0 100 100;" xml:space="preserve"><g><path d="M49.994,0C22.375,0-0.007,22.384-0.007,50.001C-0.007,77.61,22.375,100,49.994,100c27.61,0,49.999-22.39,49.999-49.999   C99.993,22.384,77.604,0,49.994,0z M49.994,84.011c-18.783,0-34.013-15.228-34.013-34.01c0-18.784,15.229-34.011,34.013-34.011   c18.782,0,34.01,15.227,34.01,34.011C84.004,68.783,68.776,84.011,49.994,84.011z"></path><path d="M49.883,24.268c-0.286-1.366-0.925-2.067-2.063-2.067c-1.146,0-1.784,0.701-2.07,2.067   c-0.3,1.395-4.479,21.494-5.318,25.519c-0.729,3.527,1.008,6.888,4.022,8.339c1.465,0.727,3.19,0.98,4.961,0.611   c4.023-0.832,24.121-5.018,25.514-5.315c1.368-0.289,2.071-0.924,2.071-2.066c0-1.137-0.703-1.777-2.071-2.066   c-1.08-0.232-13.372-2.791-20.728-4.323C52.663,37.601,50.111,25.346,49.883,24.268z"></path></g></svg>