<svg xmlns="http://www.w3.org/2000/svg" xmlns:xlink="http://www.w3.org/1999/xlink" version="1.1" x="0px" y="0px" viewBox="0 0 100 100" enable-background="new 0 0 100 100" xml:space="preserve"><g><path d="M44.716,74.945c-18.251,0-33.1-14.849-33.1-33.101c0-18.249,14.849-33.095,33.1-33.095c18.246,0,33.09,14.847,33.09,33.095   C77.806,60.097,62.962,74.945,44.716,74.945z M44.716,22.75c-10.532,0-19.1,8.566-19.1,19.095c0,10.532,8.568,19.101,19.1,19.101   c10.526,0,19.09-8.568,19.09-19.101C63.806,31.315,55.242,22.75,44.716,22.75z"></path><path d="M55.386,67.918c7.863,7.691,15.727,15.383,23.59,23.074c6.456,6.313,16.362-3.579,9.9-9.9   c-7.863-7.691-15.727-15.383-23.59-23.074C58.83,51.704,48.924,61.597,55.386,67.918L55.386,67.918z"></path></g></svg>