<svg xmlns="http://www.w3.org/2000/svg" viewBox="0 0 377 398"><path fill="#FF211F" d="M96 370l4 28 16-21z"/><path fill="#EB0000" d="M100 398l-21-25 17-3z"/><path fill="#EA0000" d="M116 377l-20-7 21-32z"/><path fill="#E80000" d="M96 370l-17 3-7-47z"/><path fill="#F00000" d="M117 338l-21 32-24-44z"/><path fill="#FF1E1D" d="M116 377l1-39 37-17z"/><path fill="#FF1C1C" d="M186 338l-70 39 38-56z"/><path fill="#DB1313" d="M216 323l-2 2-6-4z"/><path fill="#EF0000" d="M214 325l-28 13 22-17z"/><path fill="#EA0000" d="M117 338l-45-12 50-6z"/><path fill="#F10000" d="M154 321l-37 17 5-18z"/><path fill="#FF2625" d="M154 321l-32-1 39-15z"/><path fill="#DB1313" d="M208 321l-22 17-2-36z"/><path fill="#F80000" d="M186 338l-32-17 30-19z"/><path fill="#FF2625" d="M154 321l7-16 23-3z"/><path fill="#EF0000" d="M216 323l-8-2 14-19z"/><path fill="#E00" d="M208 321l-24-19 37-4z"/><path fill="#DB1313" d="M222 302l-14 19 13-23z"/><path fill="#FF1616" d="M262 301l-19 6 25-31z"/><path fill="#EC0000" d="M221 298l-37 4 18-31z"/><path fill="#F20F0C" d="M122 320l-50 6 15-57z"/><path fill="#EF0000" d="M221 298l-19-27 25-6z"/><path fill="#F90404" d="M243 307l-22-9 6-33z"/><path fill="#F00000" d="M268 276l-25 31-16-42z"/><path fill="#E00000" d="M161 305l-39 15-10-58z"/><path fill="#E40000" d="M122 320l-35-51 25-7z"/><path fill="#E60000" d="M161 305l-49-43 51-19z"/><path fill="#EB0303" d="M184 302l-23 3 2-62z"/><path fill="#E70000" d="M202 271l-18 31-21-59z"/><path fill="#E00" d="M268 276l-41-11 42-30z"/><path fill="#E10000" d="M280 252l-12 24 1-41z"/><path fill="#DB0000" d="M377 247l-11 5-9-26z"/><path fill="#F50000" d="M366 252h-86l77-26z"/><path fill="#E70000" d="M227 265l-25 6-26-54z"/><path fill="#E90504" d="M202 271l-39-28 13-26z"/><path fill="#E50000" d="M377 247l-20-21 8-9z"/><path fill="#E70000" d="M365 217l-8 9-17-25z"/><path fill="#F40000" d="M280 252l-11-17 71-34z"/><path fill="#DC0000" d="M357 226l-77 26 60-51z"/><path fill="#F81515" d="M340 201l-71 34-15-37z"/><path fill="#E50000" d="M269 235l-42 30 27-67z"/><path fill="#E60000" d="M227 265l-51-48 78-19z"/><path fill="#E70605" d="M176 217l-13 26-58-73z"/><path fill="#E30000" d="M163 243l-51 19-7-92z"/><path fill="#E90000" d="M112 262l-20-89 13-3z"/><path fill="#F10000" d="M37 202L0 187l57-19z"/><path fill="#EF0000" d="M92 173l-55 29 20-34z"/><path fill="#DB0707" d="M374 140l-6 10-15-43z"/><path fill="#D00" d="M365 217l-25-16 13-94z"/><path fill="#DA0505" d="M368 150l-3 67-12-110z"/><path fill="#EB0000" d="M105 170l-13 3 19-24z"/><path fill="#EF0404" d="M92 173l-35-5 54-19z"/><path fill="#E60000" d="M176 217l-71-47 39-22z"/><path fill="#E70000" d="M105 170l6-21 33-1z"/><path fill="#E50000" d="M340 201l-86-3-6-54z"/><path fill="#EB1614" d="M176 217l-32-69 67-9z"/><path fill="#E60A09" d="M254 198l-78 19 35-78z"/><path fill="#E10000" d="M248 144l6 54-43-59z"/><path fill="#EA0D0D" d="M353 107l-13 94-15-112z"/><path fill="#E60909" d="M340 201l-92-57 77-55z"/><path fill="#D20202" d="M248 144l-37-5 29-3z"/><path fill="#E40000" d="M57 168L0 187l15-52z"/><path fill="#DC0202" d="M240 136l-29 3 25-6z"/><path fill="#DA0202" d="M236 133l-25 6 20-13z"/><path fill="#D41C1C" d="M240 136l-4-3 8-15z"/><path fill="#D60404" d="M236 133l-5-7 13-8z"/><path fill="#E20303" d="M248 144l-8-8 4-18z"/><path fill="#D20505" d="M248 144l-4-26 13-5z"/><path fill="#D70A0A" d="M248 144l77-55-68 24z"/><path fill="#DC0404" d="M244 118l-13 8-11-13z"/><path fill="#E20101" d="M211 139l-67 9 76-35z"/><path fill="#E20202" d="M231 126l-20 13 9-26z"/><path fill="#E50707" d="M257 113l-13 5 8-10z"/><path fill="#EC0000" d="M15 135L0 187l12-86z"/><path fill="#EB0000" d="M111 149l-54 19-45-67z"/><path fill="#E00000" d="M57 168l-42-33-3-34z"/><path fill="#ED1414" d="M244 118l-24-5-1-17z"/><path fill="#DD0707" d="M252 108l-8 10-25-22z"/><path fill="#E20D0D" d="M252 108l73-19-101-21z"/><path fill="#E70705" d="M220 113l-76 35 75-52z"/><path fill="#D70A0A" d="M252 108l-33-12 5-28z"/><path fill="#D90A0A" d="M252 108l5 5 68-24z"/><path fill="#E60504" d="M144 148l-33 1-11-106z"/><path fill="#F21212" d="M100 43l11 106L71 41z"/><path fill="#EA0808" d="M111 149l-99-48 59-60z"/><path fill="#E60E0E" d="M12 101l18-44 41-16z"/><path fill="#F21212" d="M100 43l-29-2 3-7z"/><path fill="#D11212" d="M71 41L30 57l44-23z"/><path fill="#EA0D0D" d="M224 68l-5 28-64-64z"/><path fill="#E80808" d="M219 96l-75 52 11-116z"/><path fill="#EE0B0B" d="M144 148L100 43l55-11z"/><path fill="#F61515" d="M155 32l-55 11 49-18z"/><path fill="#EE1414" d="M100 43l-26-9 10-14z"/><path fill="#E61515" d="M149 25l-49 18-5-32z"/><path fill="#DD1414" d="M100 43L84 20l11-9z"/><path fill="#D71616" d="M155 32l-6-7 18-18z"/><path fill="#DD1212" d="M325 89L224 68l5-62z"/><path fill="#D71616" d="M229 6l-5 62-34-68z"/><path fill="#E61414" d="M224 68l-69-36 35-32z"/><path fill="#E31616" d="M155 32l12-25 23-7z"/><path fill="#D71616" d="M190 0l-23 7 12-7z"/></svg>