<svg xmlns="http://www.w3.org/2000/svg" viewBox="0 0 64 64"><path fill="#E90707" d="M14.6 11.6l-1.4-4.8L17.3 9z"/><path fill="#D10B0B" d="M13.2 6.8l-1.5 5.6 2.9-.8z"/><path fill="#CB0808" d="M17.3 9l-2.7 2.6 5.8 3.6z"/><path fill="#D20D0D" d="M14.6 11.6l-2.9.8 2.3 8z"/><path fill="#DD0B0B" d="M20.4 15.2l-5.8-3.6-.6 8.8z"/><path fill="#DF0A0A" d="M37.3 10.2l-.4-.1-.7 1z"/><path fill="#DF0A0A" d="M36.9 10.1l-5.5-.1 4.8 1.1z"/><path fill="#DA0A0A" d="M20.4 15.2L14 20.4l8.5-2.7z"/><path fill="#DD0808" d="M27.5 15.2h-7.1l2.1 2.5z"/><path fill="#F21515" d="M27.5 15.2l-5 2.5 7.4-.5z"/><path fill="#E50000" d="M50.3 4.6l-3.4 1.2 4.4 1.8z"/><path fill="#DF0C0C" d="M36.2 11.1L31.4 10l2.4 6z"/><path fill="#E80C0C" d="M31.4 10l-3.9 5.2 6.3.8z"/><path fill="#E90A0A" d="M27.5 15.2l2.4 2 3.9-1.2z"/><path fill="#DF0A0A" d="M37.3 10.2l-1.1.9 3.6 2z"/><path fill="#E00202" d="M46.9 5.8l-4.1 5 3.5-.5z"/><path fill="#E60000" d="M51.3 7.6l-4.4-1.8-.6 4.5z"/><path fill="#DF0A0A" d="M36.2 11.1L33.8 16l6.2-2.1z"/><path fill="#DF0A0A" d="M39.8 13.1l-3.6-2 3.8 2.8z"/><path fill="#EF0000" d="M51.3 7.6l-5 2.7 4.6.6z"/><path fill="#E20000" d="M50.9 10.9l-4.6-.6 2.8 3.6z"/><path fill="#ED080A" d="M46.3 10.3l-3.5.5 6.3 3.1z"/><path fill="#E00707" d="M40 13.9L33.8 16l5.1 3.6z"/><path fill="#ED0E0E" d="M22.5 17.7L14 20.4l6.7 8z"/><path fill="#DF0202" d="M40 13.9l-1.1 5.7 4.5-.9z"/><path fill="#E70404" d="M42.8 10.8L40 13.9l3.4 4.8z"/><path fill="#DE0000" d="M49.1 13.9l-6.3-3.1.6 7.9z"/><path fill="#D90808" d="M29.9 17.2l-7.4.5 2.7 10z"/><path fill="#E40B0B" d="M22.5 17.7l-1.8 10.7 4.5-.7z"/><path fill="none" d="M51.3 7.6l-.4 3.3M50.3 4.6l1 3"/><path fill="#E20404" d="M29.9 17.2l-4.7 10.5 9.6-.7z"/><path fill="#E50707" d="M33.8 16l-3.9 1.2 4.9 9.8z"/><path fill="#E20404" d="M38.9 19.6L33.8 16l1 11z"/><path fill="#F8201F" d="M25.2 27.7l-4.5.7-3.8 8.2z"/><path fill="#ED0000" d="M49.1 13.9l-5.7 4.8 8.9 1.7z"/><path fill="#E20502" d="M43.4 18.7l-4.5.9-.1 10.6z"/><path fill="#E40F0D" d="M38.9 19.6L34.8 27l4 3.2z"/><path fill="none" d="M52.3 20.4l.4 7"/><path fill="#F10000" d="M52.3 20.4l-8.9-1.7 9.3 8.7z"/><path fill="#EC0B07" d="M43.4 18.7l-4.6 11.5 13.9-2.8z"/><path fill="#ED1010" d="M25.2 27.7l-8.3 8.9 11.7 6.8z"/><path fill="#E90B0B" d="M16.9 36.6l.7 6.3 11 .5z"/><path fill="#E71715" d="M38.8 30.2l-4-3.2-3.9 16z"/><path fill="#E00303" d="M34.8 27l-9.6.7L30.9 43z"/><path fill="#E30302" d="M25.2 27.7l3.4 15.7 2.3-.4z"/><path fill="#E30404" d="M28.6 43.4l-11-.5 5.8 3.9z"/><path fill="#E81010" d="M30.9 43l-2.3.4 4.8 2.5z"/><path fill="#EA1211" d="M28.6 43.4l-5.2 3.4 10-.9z"/><path fill="#E91514" d="M38.8 30.2L30.9 43l7.9.6z"/><path fill="#EB1413" d="M30.9 43l2.5 2.9 5.4-2.3z"/><path fill="none" d="M52.7 27.4l3 9.1"/><path fill="#F3302F" d="M38.8 30.2v13.4l11.4-3.5z"/><path fill="#F62322" d="M52.7 27.4l-13.9 2.8 11.4 9.9z"/><path fill="#FF1918" d="M55.7 36.5l-3-9.1-2.5 12.7z"/><path fill="#F30000" d="M55.7 36.5l-5.5 3.6 4.8-1.7z"/><path fill="#F51918" d="M55 38.4l-4.8 1.7 4.4-.9z"/><path fill="#FC0504" d="M54.6 39.2l-4.4.9 4.1.6z"/><path fill="#FA2120" d="M50.2 40.1l-11.4 3.5h14.7z"/><path fill="#FF1C1C" d="M54.3 40.7l-4.1-.6 3.3 3.5z"/><path fill="#FF2525" d="M53.5 43.6H38.8l15.8 2.7z"/><path fill="#FC2C2B" d="M38.8 43.6l-5.4 2.3 6.1 17.8z"/><path fill="#FF2423" d="M39.5 63.7l-6.1-17.8L35 66.1z"/><path fill="#F81313" d="M39.5 63.7L35 66.1l1 .9z"/><path fill="#FF2522" d="M54.6 46.3l-15.8-2.7 10.4 17.7z"/><path fill="#F52121" d="M38.8 43.6l.7 20.1 9.7-2.4z"/><path fill="#FF2221" d="M49.2 61.3l-9.7 2.4 9.2-.8z"/><path fill="#F00705" d="M39.5 63.7L36 67l2.7 1.5z"/><path fill="#EC0000" d="M48.7 62.9l-9.2.8 1.6 5.5z"/><path fill="#E10000" d="M39.5 63.7l-.8 4.8 2.4.7z"/></svg>