<svg xmlns="http://www.w3.org/2000/svg" viewBox="73.9 194 484.7 565.5"><path fill="#13B3B2" d="M435.2 230l-5.1-36-20.6 27z"/><path fill="#105555" d="M430.1 194l27 32.2-21.9 3.8z"/><path fill="#0F5555" d="M409.5 221l25.7 9-27 41.2z"/><path fill="#0A5656" d="M435.2 230l21.9-3.8 9 60.4z"/><path fill="#077A78" d="M408.2 271.2l27-41.2 30.9 56.6z"/><path fill="#0DB0B0" d="M409.5 221l-1.3 50.2-47.6 21.8z"/><path fill="#12B1AF" d="M319.5 271.2l90-50.2-48.9 72z"/><path fill="#0E918F" d="M280.9 290.4l2.6-2.5 7.7 5.1z"/><path fill="#13706F" d="M283.5 287.9l36-16.7-28.3 21.8z"/><path fill="#026E6E" d="M408.2 271.2l57.9 15.4-64.3 7.7z"/><path fill="#057E7C" d="M360.6 293l47.6-21.8-6.4 23.1z"/><path fill="#06BAB9" d="M360.6 293l41.2 1.3-50.2 19.3z"/><path fill="#117B7A" d="M291.2 293l28.3-21.8 2.6 46.2z"/><path fill="#0E918F" d="M319.5 271.2l41.1 21.8-38.5 24.4z"/><path fill="#079794" d="M360.6 293l-9 20.6-29.5 3.8z"/><path fill="#137372" d="M280.9 290.4l10.3 2.6-18 24.4z"/><path fill="#107B78" d="M291.2 293l30.9 24.4-47.6 5.2z"/><path fill="#0E918F" d="M273.2 317.4l18-24.4-16.7 29.6z"/><path fill="#10B3B3" d="M221.8 318.7l24.4-7.7-32.1 39.9z"/><path fill="#0A8582" d="M274.5 322.6l47.6-5.2-23.2 39.9z"/><path fill="#009D9C" d="M401.8 294.3l64.3-7.7-19.3 73.3z"/><path fill="#088C8A" d="M274.5 322.6l24.4 34.7-32.1 7.7z"/><path fill="#0FA09F" d="M246.2 311l28.3 11.6-7.7 42.4z"/><path fill="#0F8885" d="M214.1 350.9l32.1-39.9 20.6 54z"/><path fill="#006D6A" d="M351.6 313.6l50.2-19.3 12.8 74.6z"/><path fill="#008B88" d="M401.8 294.3l45 65.6-32.2 9z"/><path fill="#009392" d="M351.6 313.6l63 55.3-65.5 24.4z"/><path fill="#019695" d="M322.1 317.4l29.5-3.8-2.5 79.7z"/><path fill="#028C8B" d="M298.9 357.3l23.2-39.9 27 75.9z"/><path fill="#0A9291" d="M214.1 350.9l52.7 14.1-54 38.6z"/><path fill="#0F7373" d="M198.6 381.7l15.5-30.8-1.3 52.7z"/><path fill="#0B6464" d="M73.9 388.2l14.2-6.5 11.5 33.5z"/><path fill="#13AFAE" d="M88.1 381.7h110.5l-99 33.5z"/><path fill="#019996" d="M266.8 365l32.1-7.7 33.5 69.4z"/><path fill="#02A5A4" d="M298.9 357.3l50.2 36-16.7 33.4z"/><path fill="#078984" d="M73.9 388.2l25.7 27-10.2 11.5z"/><path fill="#049896" d="M89.4 426.7l10.2-11.5 21.9 32.1z"/><path fill="#0DB4B3" d="M198.6 381.7l14.2 21.9-91.3 43.7z"/><path fill="#0B7A78" d="M99.6 415.2l99-33.5-77.1 65.6z"/><path fill="#07C8C8" d="M121.5 447.3l91.3-43.7 19.3 47.6z"/><path fill="#048F8E" d="M212.8 403.6l54-38.6-34.7 86.2z"/><path fill="#03A09C" d="M266.8 365l65.6 61.7-100.3 24.5z"/><path fill="#09B0B0" d="M332.4 426.7l16.7-33.4 74.5 93.9z"/><path fill="#019592" d="M349.1 393.3l65.5-24.4 9 118.3z"/><path fill="#0AACAB" d="M414.6 368.9l25.8 114.4-16.8 3.9z"/><path fill="#12C3C4" d="M511.1 446l47.5 19.3-73.2 24.4z"/><path fill="#13C3C1" d="M440.4 483.3l70.7-37.3-25.7 43.7z"/><path fill="#009A97" d="M77.8 525.7l7.7-12.8 19.3 55.3z"/><path fill="#00A3A3" d="M89.4 426.7l32.1 20.6-16.7 120.9z"/><path fill="#009A97" d="M85.5 512.9l3.9-86.2 15.4 141.5z"/><path fill="#0CC2C1" d="M423.6 487.2l16.8-3.9-24.5 30.9z"/><path fill="#0DD0CE" d="M440.4 483.3l45 6.4-69.5 24.5z"/><path fill="#0EB5B3" d="M332.4 426.7l91.2 60.5-50.1 28.2z"/><path fill="#0FBEBC" d="M423.6 487.2l-7.7 27-42.4 1.2z"/><path fill="#0AB7B5" d="M121.5 447.3l110.6 3.9 7.7 69.4z"/><path fill="#1BD2D0" d="M332.4 426.7l41.1 88.7-86.1 11.6z"/><path fill="#16C0BE" d="M232.1 451.2l100.3-24.5-45 100.3z"/><path fill="#14BEBD" d="M239.8 520.6l-7.7-69.4 55.3 75.8z"/><path fill="#00D0CF" d="M104.8 568.2l16.7-120.9 19.3 144z"/><path fill="#00B8B8" d="M121.5 447.3l118.3 73.3-99 70.7z"/><path fill="#079998" d="M239.8 520.6l47.6 6.4-37.3 3.9z"/><path fill="#07B2B1" d="M485.4 489.7l73.2-24.4-19.2 66.9z"/><path fill="#11B5B4" d="M250.1 530.9l37.3-3.9-32.2 7.7z"/><path fill="#0FAEAE" d="M255.2 534.7l32.2-7.7-25.8 16.7z"/><path fill="#0CADAC" d="M250.1 530.9l5.1 3.8-10.3 19.3z"/><path fill="#06A09F" d="M255.2 534.7l6.4 9-16.7 10.3z"/><path fill="#13C3C4" d="M239.8 520.6l10.3 10.3-5.2 23.1z"/><path fill="#029B99" d="M239.8 520.6l5.1 33.4-16.7 6.4z"/><path fill="#009A97" d="M239.8 520.6l-99 70.7 87.4-30.9z"/><path fill="#0EB5B4" d="M244.9 554l16.7-10.3 14.2 16.7z"/><path fill="#18C7C6" d="M287.4 527l86.1-11.6-97.7 45z"/><path fill="#15C7C7" d="M261.6 543.7l25.8-16.7-11.6 33.4z"/><path fill="#0EC8C6" d="M228.2 560.4l16.7-6.4-10.3 12.9z"/><path fill="#00DADA" d="M539.4 532.2l19.2-66.9-15.4 110.6z"/><path fill="#04D0CF" d="M415.9 514.2l69.5-24.5 57.8 86.2z"/><path fill="#00BCBA" d="M485.4 489.7l54 42.5 3.8 43.7z"/><path fill="#1BE4E3" d="M244.9 554l30.9 6.4 1.3 21.9z"/><path fill="#09B6B5" d="M234.6 566.9l10.3-12.9 32.2 28.3z"/><path fill="#00B8B7" d="M234.6 566.9l-93.8 24.4 129.8 27z"/><path fill="#1AD2D1" d="M275.8 560.4l97.7-45-96.4 66.9z"/><path fill="#00A3A2" d="M234.6 566.9l42.5 15.4-6.5 36z"/><path fill="#009F9F" d="M234.6 566.9l-6.4-6.5-87.4 30.9z"/><path fill="#13D5D4" d="M373.5 515.4l42.4-1.2 14.2 136.2z"/><path fill="#05E1E0" d="M430.1 650.4l-14.2-136.2L467.4 653z"/><path fill="#00D6D5" d="M415.9 514.2l127.3 61.7-75.8 77.1z"/><path fill="#00D1D1" d="M543.2 575.9l-23.1 56.5-52.7 20.6z"/><path fill="#00F4F3" d="M430.1 650.4l37.3 2.6-3.9 9z"/><path fill="#009292" d="M467.4 653l52.7-20.6-56.6 29.6z"/><path fill="#0BD6D5" d="M270.6 618.3l6.5-36 82.3 82.3z"/><path fill="#15D5D3" d="M277.1 582.3l96.4-66.9-14.1 149.2z"/><path fill="#0FE3E2" d="M373.5 515.4l56.6 135-70.7 14.2z"/><path fill="#00FCFB" d="M359.4 664.6l70.7-14.2-63 23.2z"/><path fill="#00E8E7" d="M430.1 650.4l33.4 11.6-12.9 18z"/><path fill="#00CDCD" d="M367.1 673.6l63-23.2 6.4 41.2z"/><path fill="#00B6B5" d="M430.1 650.4l20.5 29.6-14.1 11.6z"/><path fill="#009A9B" d="M359.4 664.6l7.7 9-23.2 23.1z"/><path fill="#00AFAF" d="M140.8 591.3l129.8 27-6.4 79.7z"/><path fill="#00ABAB" d="M264.2 698l6.4-79.7 43.8 87.4z"/><path fill="#00C6C4" d="M270.6 618.3l88.8 46.3-45 41.1z"/><path fill="#00C2C1" d="M359.4 664.6l-15.5 32.1-29.5 9z"/><path fill="#00AFAF" d="M314.4 705.7l29.5-9-15.4 9z"/><g><path fill-rule="evenodd" clip-rule="evenodd" fill="#0C5B5B" d="M276.1 759.5l3-10.6-9.1 6 6.1 4.6zm96.6-54.3l4.5-6-1.5-9.1-3 15.1zm45.3 19.6l6 6 4.5-6H418zm-178.2 15.1l15.1-7.5h-16.6l1.5 7.5zm-66.4-52.8l4.5-3-3-6-1.5 9z"/></g></svg>