<svg xmlns="http://www.w3.org/2000/svg" viewBox="0 0 130.8 147.5"><path fill="#81B65D" d="M65.4 147.5c-2 0-3.9-.5-5.7-1.5l-18.1-10.7c-2.7-1.5-1.4-2-.5-2.4 3.6-1.2 4.3-1.5 8.2-3.7.4-.2.9-.1 1.3.1l13.9 8.2c.5.3 1.2.3 1.7 0l54.1-31.2c.5-.3.8-.9.8-1.5V42.5c0-.6-.3-1.2-.8-1.5l-54-31.2c-.5-.3-1.2-.3-1.7 0L10.6 41c-.6.4-.9 1-.9 1.5v62.4c0 .6.3 1.2.9 1.4l14.8 8.6c8 4 13-.7 13-5.5V47.9c0-.9.7-1.6 1.6-1.6h6.9c.9 0 1.6.7 1.6 1.6v61.6c0 10.7-5.8 16.9-16 16.9-3.1 0-5.6 0-12.5-3.4l-14.2-8.2c-3.5-2-5.7-5.8-5.7-9.9V42.5c0-4.1 2.2-7.8 5.7-9.9L59.7 1.5c3.4-1.9 8-1.9 11.4 0l54.1 31.2c3.5 2 5.7 5.8 5.7 9.9V105c0 4.1-2.2 7.8-5.7 9.9L71.1 146c-1.7 1-3.7 1.5-5.7 1.5zM109.1 86c0-11.7-7.9-14.8-24.5-17-16.8-2.2-18.5-3.4-18.5-7.3 0-3.2 1.4-7.6 13.9-7.6 11.1 0 15.2 2.4 16.9 9.9.1.7.8 1.2 1.5 1.2h7c.4 0 .8-.2 1.1-.5.3-.3.5-.8.4-1.2-1.1-12.9-9.7-18.9-27-18.9-15.4 0-24.6 6.5-24.6 17.4 0 11.8 9.1 15.1 23.9 16.6 17.7 1.7 19.1 4.3 19.1 7.8 0 6-4.8 8.6-16.2 8.6-14.3 0-17.5-3.6-18.5-10.7-.1-.7-.8-1.3-1.6-1.3h-7c-.9 0-1.6.7-1.6 1.6 0 9.1 5 20 28.6 20 17.2-.1 27.1-6.8 27.1-18.6z"/></svg>