<svg xmlns="http://www.w3.org/2000/svg" viewBox="0 0 415.4 446.1"><path fill="#FF2623" d="M251.8 420.7l-12.6 25.4-8.6-25z"/><path fill="#F10000" d="M239.2 446.1l27.8-17.3-15.2-8.1z"/><path fill="#ED0000" d="M230.6 421.1l21.2-.4-10-37z"/><path fill="#EF0000" d="M251.8 420.7l15.2 8.1 21.3-42.4z"/><path fill="#FB0000" d="M241.8 383.7l10 37 36.5-34.3z"/><path fill="#FF1F1E" d="M230.6 421.1l11.2-37.4-29.9-27.6z"/><path fill="#FF1A1A" d="M176.2 362.2l54.4 58.9-18.7-65z"/><path fill="#ED0000" d="M152.4 338.6l1.3 2.6 6.9-2z"/><path fill="#ED0000" d="M153.7 341.2l22.5 21-15.6-23z"/><path fill="#F40000" d="M241.8 383.7l46.5 2.7-45.6-21.3z"/><path fill="#F70000" d="M211.9 356.1l29.9 27.6.9-18.6z"/><path fill="#FF2424" d="M211.9 356.1l30.8 9-32.4-26.4z"/><path fill="#D30B0B" d="M77 311.8l18.4 8.1-10.9-24.6z"/><path fill="#F00000" d="M160.6 339.2l15.6 23 13.1-33.5z"/><path fill="#F70000" d="M176.2 362.2l35.7-6.1-22.6-27.4z"/><path fill="#FA0300" d="M211.9 356.1l-1.6-17.4-21-10z"/><path fill="#ED0000" d="M152.4 338.6l8.2.6-7.4-22.4z"/><path fill="#AF0E0E" d="M95.4 319.9l36.3-4.9-16.2-11.6z"/><path fill="#FC0000" d="M84.5 295.3l10.9 24.6 20.1-16.5z"/><path fill="#ED0000" d="M160.6 339.2l28.7-10.5-33.9-15.4z"/><path fill="#ED0000" d="M153.2 316.8l7.4 22.4-5.2-25.9z"/><path fill="#E80000" d="M84.5 295.3l31 8.1L99 283.2z"/><path fill="#D30B0B" d="M99 283.2l16.5 20.2 2.1-25.6z"/><path fill="#E80000" d="M115.5 303.4l16.2 11.6-14.1-37.2z"/><path fill="#EC0000" d="M155.4 313.3l33.9 15.4-7.4-35.1z"/><path fill="#FF1110" d="M242.7 365.1l45.6 21.3 3.5-58.9z"/><path fill="#F20000" d="M288.3 386.4l39.3-42.9-35.8-16z"/><path fill="#D30B0B" d="M155.4 313.3l26.5-19.7-21.9-13.5z"/><path fill="#E80000" d="M131.7 315l23.7-1.7 4.6-33.2z"/><path fill="#D30B0B" d="M117.6 277.8l14.1 37.2 28.3-34.9z"/><path fill="#EA0000" d="M210.3 338.7l32.4 26.4 27.5-52z"/><path fill="#F10000" d="M242.7 365.1l49.1-37.6-21.6-14.4z"/><path fill="#AF0E0E" d="M99 283.2l18.6-5.4-3.9-26.6zm-14.5 12.1L99 283.2l-67-58.8z"/><path fill="#AF0E0E" d="M99 283.2l14.7-32L32 224.4zm-22 28.6l7.5-16.5L32 224.4z"/><path fill="#EC0000" d="M210.3 338.7l59.9-25.6-42.5-34z"/><path fill="#F20000" d="M189.3 328.7l21 10 17.4-59.6z"/><path fill="#EA0000" d="M181.9 293.6l7.4 35.1 38.4-49.6z"/><path fill="#FF2120" d="M270.2 313.1l21.6 14.4 47.3-19.2z"/><path fill="#F10000" d="M291.8 327.5l35.8 16 11.5-35.2z"/><path fill="#FF1D1D" d="M327.6 343.5l19.2-20-7.7-15.2z"/><path fill="#E50000" d="M117.6 277.8l42.4 2.3-30.5-41.6z"/><path fill="#AF0E0E" d="M113.7 251.2l3.9 26.6 11.9-39.3z"/><path fill="#F30000" d="M339.1 308.3l7.7 15.2 10.4-12.4z"/><path fill="#AF0E0E" d="M23.1 216.2l8.9 8.2 16.7-21.9z"/><path fill="#E80000" d="M32 224.4l81.7 26.8-65-48.7z"/><path fill="#EB0000" d="M160 280.1l21.9 13.5 41.5-43.2z"/><path fill="#EB0000" d="M181.9 293.6l45.8-14.5-4.3-28.7z"/><path fill="#D30B0B" d="M23.1 216.2l25.6-13.7-4.8-11z"/><path fill="#E00" d="M339.1 308.3l18.1 2.8 3-31.6z"/><path fill="#DC0101" d="M43.9 191.5l4.8 11 23.9-18.4z"/><path fill="#E80000" d="M113.7 251.2l15.8-12.7-56.9-54.4z"/><path fill="#AF0E0E" d="M48.7 202.5l65 48.7-41.1-67.1z"/><path fill="#F43838" d="M72.6 184.1l56.9 54.4 25.8-30.5z"/><path fill="#D30B0B" d="M129.5 238.5l30.5 41.6-4.7-72.1z"/><path fill="#DB0000" d="M160 280.1l63.4-29.7-68.1-42.4z"/><path fill="#FF1A18" d="M360.2 279.5l-3 31.6 42.8-34.4z"/><path fill="#F00303" d="M270.2 313.1l68.9-4.8-22.1-73.5z"/><path fill="#F20000" d="M339.1 308.3l21.1-28.8-43.2-44.7z"/><path fill="#D30909" d="M223.4 250.4l4.3 28.7 77.9-51.2z"/><path fill="#E20000" d="M227.7 279.1l42.5 34 35.4-85.2z"/><path fill="#E30000" d="M270.2 313.1l46.8-78.3-11.4-6.9z"/><path fill="#F10000" d="M360.2 279.5l39.8-2.8-48.2-35.8z"/><path fill="#EA0000" d="M317 234.8l43.2 44.7-8.4-38.6z"/><path fill="#D80505" d="M0 145.5l2.6 11.4 27.6-36.2z"/><path fill="#E10505" d="M43.9 191.5l28.7-7.4-42.4-63.4z"/><path fill="#D30B0B" d="M2.6 156.9l41.3 34.6-13.7-70.8z"/><path fill="#E50000" d="M305.6 227.9l11.4 6.9-10.6-28.8z"/><path fill="#EA0504" d="M317 234.8l34.8 6.1-45.4-34.9z"/><path fill="#D30B0B" d="M223.4 250.4l82.2-22.5-30.2-33.1z"/><path fill="#E30000" d="M305.6 227.9l.8-21.9-31-11.2z"/><path fill="#EA0A0A" d="M72.6 184.1l82.7 23.9 22.5-49.4z"/><path fill="#F22525" d="M223.4 250.4l52-55.6-60.9-29.4z"/><path fill="#EC1210" d="M155.3 208l68.1 42.4-8.9-85z"/><path fill="#D31818" d="M177.8 158.6L155.3 208l59.2-42.6z"/><path fill="#EA0D0D" d="M30.2 120.7l42.4 63.4-10.1-71.8z"/><path fill="#EC1010" d="M72.6 184.1l105.2-25.5-115.3-46.3z"/><path fill="#DB0E0E" d="M177.8 158.6l36.7 6.8-26.6-11.9z"/><path fill="#E80000" d="M351.8 240.9l48.2 35.8 2-54.1z"/><path fill="#D31818" d="M187.9 153.5l26.6 11.9-21.9-13.5z"/><path fill="#C11616" d="M192.6 151.9l21.9 13.5-15-18.6zm-4.7 1.6l4.7-1.6-2.9-16.8z"/><path fill="#DB0E0E" d="M192.6 151.9l6.9-5.1-9.8-11.7z"/><path fill="#E10B0B" d="M177.8 158.6l10.1-5.1 1.8-18.4z"/><path fill="#DB0E0E" d="M177.8 158.6l11.9-23.5-10.8-8.8z"/><path fill="#C11616" d="M189.7 135.1l9.8 11.7 14.6-9z"/><path fill="#E80808" d="M214.5 165.4l60.9 29.4-61.3-57z"/><path fill="#E10B0B" d="M199.5 146.8l15 18.6-.4-27.6zm-20.6-20.5l10.8 8.8-4.5-12z"/><path fill="#F10707" d="M402 222.6l-2 54.1 15.4-85.4z"/><path fill="#E90401" d="M306.4 206l45.4 34.9 63.6-49.6z"/><path fill="#E40000" d="M351.8 240.9l50.2-18.3 13.4-31.3z"/><path fill="#F41212" d="M189.7 135.1l24.4 2.7 6.2-15.8z"/><path fill="#E30D0D" d="M185.2 123.1l4.5 12 30.6-13.1z"/><path fill="#EB0909" d="M214.1 137.8l61.3 57-55.1-72.8z"/><path fill="#D70B0B" d="M185.2 123.1l35.1-1.1 4-28.2z"/><path fill="#E80302" d="M275.4 194.8l31 11.2 43.5-97.3z"/><path fill="#ED0909" d="M349.9 108.7L306.4 206l71.7-90.1z"/><path fill="#E80404" d="M306.4 206l109-14.7-37.3-75.4z"/><path fill="#E20707" d="M415.4 191.3l-3.4-47.4-33.9-28z"/><path fill="#ED0B0B" d="M349.9 108.7l28.2 7.2-.7-7.6z"/><path fill="#CD0A0A" d="M378.1 115.9l33.9 28-34.6-35.6z"/><path fill="#E70A0A" d="M224.3 93.8l-4 28.2 80.8-40.9z"/><path fill="#E80707" d="M220.3 122l55.1 72.8 25.7-113.7z"/><path fill="#EC0808" d="M275.4 194.8l74.5-86.1-48.8-27.6z"/><path fill="#F00E0E" d="M301.1 81.1l48.8 27.6-41-32.3z"/><path fill="#E70B0B" d="M349.9 108.7l27.5-.4-5.1-16.4z"/><path fill="#DF0D0D" d="M308.9 76.4l41 32.3 14.7-28.8z"/><path fill="#D90D0D" d="M349.9 108.7l22.4-16.8-7.7-12z"/><path fill="#D11212" d="M301.1 81.1l7.8-4.7-11.4-22.8z"/><path fill="#D50C0C" d="M190.8 29.2l33.5 64.6 14.6-60.4z"/><path fill="#EF1010" d="M297.5 53.6l11.4 22.8 8.8-23.5z"/><path fill="#D40E0E" d="M238.9 33.4l-14.6 60.4 53.5-54z"/><path fill="#E00E0E" d="M224.3 93.8l76.8-12.7-23.3-41.3z"/><path fill="#DD1010" d="M301.1 81.1l-3.6-27.5-19.7-13.8z"/><path fill="#D11212" d="M277.8 39.8l19.7 13.8-9.3-10.3z"/><path fill="#D60A0A" d="M191 15.6l-.2 13.6L202 7.6z"/><path fill="#DF1111" d="M297.5 53.6l20.2-.7-7.3-9.8z"/><path fill="#D11212" d="M288.2 43.3l9.3 10.3 12.9-10.5z"/><path fill="#D10F0F" d="M308.9 76.4l55.7 3.5-13.1-24.3z"/><path fill="#D10F0F" d="M317.7 52.9l-8.8 23.5 42.6-20.8z"/><path fill="#D50C0C" d="M190.8 29.2l48.1 4.2-16.6-20.2z"/><path fill="#D40E0E" d="M202 7.6l-11.2 21.6 31.5-16z"/><path fill="#F61010" d="M222.3 13.2l16.6 20.2 8.1-12.1z"/><path fill="#E00C0C" d="M191 15.6l11-8-7.9-4.7z"/><path fill="#F31313" d="M238.9 33.4l38.9 6.4-2.9-10.4z"/><path fill="#E91313" d="M247 21.3l-8.1 12.1 36-4z"/><path fill="#F31313" d="M277.8 39.8l10.4 3.5-13.3-13.9zm10.4 3.5l22.2-.2-35.5-13.7z"/><path fill="#F61010" d="M222.3 13.2l24.7 8.1-23.1-12.8z"/><path fill="#E00C0C" d="M194.1 2.9l7.9 4.7 5.7-7.6z"/><path fill="#E00C0C" d="M202 7.6l20.3 5.6L207.7 0z"/><path fill="#C72222" d="M222.3 13.2l1.6-4.7L207.7 0z"/><path fill="#CD1111" d="M207.7 0l16.2 8.5 38.9 3.3z"/><path fill="#E91313" d="M247 21.3l27.9 8.1-12.1-17.6z"/><path fill="#CD1111" d="M223.9 8.5L247 21.3l15.8-9.5z"/><path fill="#F00D0D" d="M364.6 79.9l7.7 12-11.7-54.4z"/><path fill="#D10F0F" d="M351.5 55.6l13.1 24.3-4-42.4z"/><path fill="#F11111" d="M317.7 52.9l33.8 2.7-19.4-36.9z"/><path fill="#E41010" d="M351.5 55.6l9.1-18.1-28.5-18.8z"/><path fill="#F51212" d="M310.4 43.1l7.3 9.8 14.4-34.2z"/><path fill="#E91313" d="M274.9 29.4l35.5 13.7 21.7-24.4z"/><path fill="#F31313" d="M262.8 11.8l12.1 17.6 57.2-10.7z"/></svg>