<svg xmlns="http://www.w3.org/2000/svg" viewBox="0 0 369.1 261.9"><path fill="#00FAF8" d="M59.4 245.7l-26.1 10.8 9.9-24.4z"/><path fill="#009898" d="M33.3 256.5l32.2 5.4-6.1-16.2z"/><path fill="#008282" d="M43.2 232.1l16.2 13.6 16.9-34.3z"/><path fill="#009898" d="M59.4 245.7l6.1 16.2 44-17.8z"/><path fill="#00B8B5" d="M76.3 211.4l-16.9 34.3 50.1-1.6z"/><path fill="#085D5B" d="M38.9 118.5l-.7 2.7 6.5 3.2z"/><path fill="#105755" d="M38.2 121.2l3 30.8 3.5-27.6z"/><path fill="#009F9E" d="M76.3 211.4l33.2 32.7-20.2-46.2z"/><path fill="#00A1A0" d="M72.1 170.9l4.2 40.5 13-13.5z"/><path fill="#00DBDB" d="M72.1 170.9l17.2 27-6.9-41.2z"/><path fill="#066D68" d="M0 48.6l8.4 18.2 8.1-25.6z"/><path fill="#085D5B" d="M44.7 124.4L41.2 152l32.1-16.6z"/><path fill="#009692" d="M41.2 152l30.9 18.9 1.2-35.5z"/><path fill="#009F9C" d="M72.1 170.9l10.3-14.2-9.1-21.3z"/><path fill="#105755" d="M38.9 118.5l5.8 5.9 9.3-21.7z"/><path fill="#056A68" d="M8.4 66.8L39 87.1l-4.5-19.4z"/><path fill="#078080" d="M16.5 41.2L8.4 66.8l26.1.9z"/><path fill="#00615E" d="M44.7 124.4l28.6 11-15.4-33.9z"/><path fill="#085D5B" d="M54 102.7l-9.3 21.7 13.2-22.9z"/><path fill="#087F7E" d="M16.5 41.2l18 26.5.9-26z"/><path fill="#0A5653" d="M35.4 41.7l-.9 26L53 49.8z"/><path fill="#07999A" d="M34.5 67.7L39 87.1l14-37.3z"/><path fill="#026766" d="M57.9 101.5l15.4 33.9 17.5-31.3z"/><path fill="#00D6D5" d="M89.3 197.9l20.2 46.2 41.5-41.9z"/><path fill="#056A69" d="M57.9 101.5l32.9 2.6-7.5-24.5z"/><path fill="#05827F" d="M39 87.1l18.9 14.4 25.4-21.9z"/><path fill="#085E5C" d="M53 49.8L39 87.1l44.3-7.5z"/><path fill="#00807C" d="M82.4 156.7l6.9 41.2 55-20.8z"/><path fill="#00A6A3" d="M89.3 197.9l61.7 4.3-6.7-25.1z"/><path d="M16.5 41.2l18.9.5M0 48.6l16.5-7.4"/><path fill="#009290" d="M82.4 156.7l61.9 20.4-9.5-53.6z"/><path fill="#00908F" d="M73.3 135.4l9.1 21.3 52.4-33.2z"/><path fill="#007573" d="M90.8 104.1l-17.5 31.3 61.5-11.9z"/><path fill="#00EEED" d="M144.3 177.1l6.7 25.1 48.2 16.8z"/><path fill="#0D6161" d="M53 49.8l30.3 29.8 4.5-51.5z"/><path fill="#067875" d="M83.3 79.6l7.5 24.5 59.7-5z"/><path fill="#028887" d="M90.8 104.1l44 19.4 15.7-24.4z"/><path fill="#CAC6C5" d="M87.8 28.1l39.5-5.8"/><path fill="#105755" d="M87.8 28.1l-4.5 51.5 44-57.3z"/><path fill="#0C7370" d="M83.3 79.6l67.2 19.5-23.2-76.8z"/><path fill="#00BCBB" d="M144.3 177.1l54.9 41.9 31.9-69.9z"/><path fill="#00C2C0" d="M199.2 219l34.9-7.8-3-62.1z"/><path fill="#009191" d="M150.5 99.1l-15.7 24.4 92.3 12.9z"/><path fill="#00847F" d="M134.8 123.5l9.5 53.6 82.8-40.7z"/><path fill="#009896" d="M144.3 177.1l86.8-28-4-12.7z"/><path fill="#00B7B5" d="M231.1 149.1l3 62.1 19.1-34.5z"/><path fill="#23A3A1" d="M227.1 136.4l4 12.7 11-28.6z"/><path fill="#00B7B7" d="M231.1 149.1l22.1 27.6-11.1-56.2z"/><path fill="#008887" d="M150.5 99.1l76.6 37.3-.9-44.8z"/><path fill="#00918E" d="M227.1 136.4l15-15.9-15.9-28.9z"/><path fill="#8E8B86" d="M127.3 22.3L176.8 0"/><path fill="#08A6A3" d="M150.5 99.1l75.7-7.5-26.3-62.3z"/><path fill="#108F8E" d="M127.3 22.3l23.2 76.8 49.4-69.8z"/><path fill="#147E7B" d="M176.8 0l-49.5 22.3 72.6 7z"/><path fill="#144341" d="M176.8 0l23.1 29.3-12.1-26.5z"/><path fill="#118D8C" d="M187.8 2.8l12.1 26.5-7.5-24.6z"/><path fill="#105755" d="M192.4 4.7l7.5 24.6L201 5.5z"/><path fill="#108F8E" d="M199.9 29.3l26.3 62.3-8.4-83.2z"/><path fill="#118584" d="M201 5.5l-1.1 23.8 17.9-20.9z"/><path fill="#06A6A4" d="M217.8 8.4l8.4 83.2 6.7-91z"/><path fill="#00A3A1" d="M226.2 91.6l15.9 28.9L339 76.2z"/><path fill="#108F8E" d="M339 76.2l-96.9 44.3 113.4-20.4z"/><path fill="#069797" d="M339 76.2l16.5 23.9L360 94z"/><path fill="#0D908D" d="M232.9.6l-6.7 91 94.4-68.4z"/><path fill="#049C9A" d="M226.2 91.6L339 76.2l-18.4-53z"/><path fill="#108F8E" d="M320.6 23.2l18.4 53-9.4-51.4z"/><path fill="#009190" d="M339 76.2L360 94l7-15.8z"/><path fill="#036565" d="M329.6 24.8l9.4 51.4 30.1-12z"/><path fill="#005353" d="M339 76.2l28 2 2.1-14z"/></svg>