<?xml version="1.0" ?><!DOCTYPE svg  PUBLIC '-//W3C//DTD SVG 1.1//EN'  'http://www.w3.org/Graphics/SVG/1.1/DTD/svg11.dtd'><svg enable-background="new 0 0 512 512" height="512px" id="Слой_1" version="1.1" viewBox="0 0 512 512" width="512px" xml:space="preserve" xmlns="http://www.w3.org/2000/svg" xmlns:xlink="http://www.w3.org/1999/xlink"><path d="M125.016,62.969c0,34.797-27.983,62.985-62.517,62.985C28,125.954,0,97.766,0,62.969  C0,28.203,28,0,62.499,0C97.032,0,125.016,28.203,125.016,62.969z M115.874,170.641H10.156V512h105.718V170.641z M284.844,170.641  H183.468V512h101.376c0,0,0-126.609,0-179.188c0-48,22.107-76.563,64.404-76.563c38.875,0,57.563,27.422,57.563,76.563  c0,49.172,0,179.188,0,179.188H512c0,0,0-124.719,0-216.125c0-91.468-51.846-135.641-124.252-135.641  c-72.422,0-102.904,56.407-102.904,56.407V170.641L284.844,170.641z" id="Linkedin_1_"/></svg>