<?xml version="1.0" standalone="no"?>
<!DOCTYPE svg PUBLIC "-//W3C//DTD SVG 20010904//EN"
 "http://www.w3.org/TR/2001/REC-SVG-20010904/DTD/svg10.dtd">
<svg version="1.0" xmlns="http://www.w3.org/2000/svg"
 width="400.000000pt" height="300.000000pt" viewBox="0 0 400.000000 300.000000"
 preserveAspectRatio="xMidYMid meet">

<g transform="translate(0.000000,300.000000) scale(0.100000,-0.100000)"
fill="#000000" stroke="none">
<path d="M2135 2444 c-665 -71 -1135 -337 -1135 -642 0 -70 29 -133 80 -174
48 -37 148 -62 225 -55 98 9 98 10 64 74 -24 45 -29 67 -29 124 0 257 287 487
705 565 79 15 146 19 320 19 196 -1 230 -3 315 -24 178 -44 310 -110 388 -195
69 -75 77 -97 77 -221 0 -104 -2 -114 -32 -175 -55 -111 -156 -190 -317 -249
-86 -31 -287 -75 -393 -87 l-62 -6 4 33 c2 19 6 77 9 129 7 134 33 296 68 430
17 63 33 125 35 138 5 21 3 22 -74 22 -99 0 -216 -29 -292 -72 -79 -44 -215
-185 -294 -303 -37 -55 -111 -178 -164 -274 l-98 -174 -165 -28 c-339 -57
-573 -139 -732 -256 -209 -153 -211 -393 -4 -455 61 -19 220 -15 291 6 33 10
95 36 138 58 143 74 331 278 480 519 54 88 47 85 230 95 l122 7 0 -184 c0
-264 36 -400 129 -494 87 -86 231 -85 386 3 73 42 73 41 45 74 -44 52 -87 228
-99 408 -4 47 -9 115 -12 151 l-5 67 93 7 c434 32 771 129 932 267 149 128
199 346 118 511 -39 78 -131 169 -224 220 -124 69 -322 125 -520 146 -131 15
-443 12 -603 -5z m-101 -590 c-47 -134 -86 -278 -104 -384 -19 -118 -3 -105
-146 -119 -70 -6 -129 -9 -132 -7 -6 7 186 349 253 450 47 70 152 186 168 186
3 0 -15 -57 -39 -126z m-554 -620 c0 -17 -102 -147 -165 -209 -231 -232 -528
-298 -574 -129 -37 139 156 244 588 319 161 28 151 27 151 19z"/>
</g>
</svg>
